<?xml version="1.0" encoding="UTF-8"?>
<svg id="Layer_2" data-name="Layer 2" xmlns="http://www.w3.org/2000/svg" viewBox="0 0 342 217.23">
  <defs>
    <style>
      .cls-1 {
        opacity: .71;
      }

      .cls-2, .cls-3 {
        stroke-width: 0px;
      }

      .cls-3 {
        fill: #f2f2f2;
      }
    </style>
  </defs>
  <g id="Layer_1-2" data-name="Layer 1">
    <g>
      <rect class="cls-3" width="342" height="217.23"/>
      <g class="cls-1">
        <path class="cls-2" d="M75.87,127.15c-.49-4.91-2.08-9.52-3.78-14.11-.73-1.98-1.16-4.07-1.83-6.47-.16.99-.35,1.69-.37,2.38-.13,4.48.97,8.76,2.22,13.01,1.04,3.53,2.08,7.06,3.11,10.6.83,2.87.85,5.83.74,8.78-.03.85-.21,1.67-1.08,2.7.06-1.21.18-1.97.12-2.73-.3-3.93-.66-7.85-1.88-11.65-1.12-3.51-2.17-7.04-3.07-10.62-.53-2.13-.76-4.34-.99-6.53-.09-.84.18-1.71.26-2.58.05-.53.22-1.14.04-1.59-.86-2.22-.19-4.36.24-6.51.22-1.1.47-2.2.38-3.38-.17.64-.37,1.27-.51,1.91-.59,2.68-1.26,5.34-1.7,8.04-.23,1.43-.12,2.92-.05,4.38.06,1.47.19,2.94.41,4.39.54,3.68,1.89,7.11,3.27,10.53,1.17,2.87,2.03,5.82,2.45,8.89.26,1.96-.13,3.86-.9,5.68-.03.08-.23.09-.51.19.9-7.17-1.97-13.44-4.49-19.79.17,2.55,1.04,4.94,1.61,7.4.56,2.44,1.95,4.68,2,7.71-.51-.55-.86-.75-.96-1.05-.95-2.78-2.02-5.54-2.74-8.39-.93-3.7-1.28-7.51-1.4-11.32-.06-1.72,0-3.45-.18-5.17.27-2.92.55-5.85.84-8.99-1.33-2.56-1.17-5.49-.67-8.43.52-3.1,1.16-6.18,1.67-9.28.14-.87.02-1.79.29-2.73.22.51.45,1.02.67,1.53.16,2.41-.1,4.77-.62,7.15-.45,2.05-1.17,4.12-.88,6.43.98-1.31,1.36-2.72,1.61-4.16.25-1.44.36-2.9.5-4.03-.1-1.37-.15-2.43-.26-3.49-.07-.64-.24-1.26-.36-1.89-.18-1.53-.34-3.06-.54-4.58-.2-1.52-.54-3.03-.64-4.56-.07-1.19.14-2.4.21-3.6.03-.47.13-.96.03-1.4-.67-3.02-.26-5.99.35-8.96.23-1.11.42-2.22.63-3.38.27.17.43.28.64.41.89-2.01,1.79-4.01,2.63-5.91.66-.23,1.09-.39,1.47-.53.73-1.02,1.42-1.99,2.11-2.96.1.05.2.11.3.16-.13.31-.22.64-.4.91-.81,1.24-1.61,2.48-2.47,3.68-1.23,1.72-2.07,3.59-2.45,5.68-.18.98-.38,1.95-.6,3.09,1-.42,1.17-1.23,1.49-1.91,1.07-2.23,2.29-4.37,3.97-6.27-.87,2.5-1.6,4.98-1.49,7.67.11,2.58-.02,5.18,1.17,7.68.13-1.02.44-2.04.36-3.04-.25-3.27.3-6.37,1.59-9.36.15-.34.41-.63.77-.9-.66,2.46-1.32,4.9-.91,7.77,1.04-2.43,1.98-4.63,2.94-6.88,1.2-.31,2.3-.78,2.7-2.07-.14-.25-.28-.5-.52-.91,1.92-.26,3.63-.49,5.34-.72,0-.05,0-.1,0-.14h-3.37c1.76-1.27,3.73-.71,5.56-.88.7.59,1.33,1.12,2.06,1.73-.28.16-.6.35-.89.53v.88c-1.54.18-3.09.32-4.3,1.41-.47-.72-.92-.16-1.29.08-.42.28-.74.69-1.11,1.05-.09-.83-.9-.67-1.54-1.5-.34,2.29-.6,4.12-.87,5.94-.2.69-.45,1.36-.59,2.06-.52,2.57-.8,5.09,0,7.72,1.01,3.32,1.67,6.75,2.48,10.13.18.76.36,1.52.54,2.28.04,1.07-.06,2.18.15,3.22.33,1.67.38,3.31.06,4.98-.06.32-.03.66,0,.99.22,3.07.54,6.13.64,9.21.07,2.23.4,4.38,1.09,6.5,1.46,4.46,3.17,8.85,3.96,13.52.08-.41.13-.82.07-1.21-.51-3.44-1.16-6.84-2.14-10.19-.98-3.33-1.82-6.71-2.51-10.11-.29-1.44-.05-2.98-.05-4.48.34.58.32,1.19.46,1.76.94,3.69,1.9,7.37,2.87,11.06.53,2,1.07,4,1.62,6,.57,2.04.61,4.22,1.94,6.04,1.8,2.44,2.53,5.28,2.84,8.26.05.5.24.99.39,1.62.99-1.67.9-3.16.35-4.77-.56-1.64-.89-3.36-1.3-5.05-1.19-4.89-2.91-9.62-4.75-14.32.1.86.19,1.72.29,2.57-1.25-1.57-1.6-3.4-1.97-5.21-.87-4.18-1.02-8.49-2.45-12.56-.24-.68-.27-1.44-.41-2.16-.37-1.88-.76-3.76-1.14-5.64-.16-2.94-.29-5.88-.51-8.82-.07-.99-.23-2.01-.58-2.92-1.31-3.39-1.58-6.9-1.34-10.48.13-.29.26-.58.38-.88.51-1.29.79-2.7,2.05-3.56-.02.2.01.42-.07.59-.94,1.89-1.05,3.98-1.42,6.01-.05.28.15.61.34,1.27.16-.6.22-.79.27-.98.58-2.61,1.36-5.14,2.93-7.36-.46,1.74-.94,3.47-1.38,5.22-.13.51-.18,1.06-.18,1.58,0,.19.28.37.6.77,1.28-2.68,2.45-5.16,3.62-7.7-.05.39-.09.77-.16,1.31.77-.69,1.4-1.25,2.03-1.81l.24.17c-.13.25-.21.57-.4.75-2.27,2.15-3.17,4.91-3.52,7.91-.26,2.26-.48,4.5-1.12,6.71-.37,1.28-.11,2.8.09,4.18.24,1.66.26,3.28.02,5.35-.92-1.97-.95-3.72-1.25-5.39-.36,2.34,1.19,12.66,2.43,15.43.11-3.11.8-5.81.34-8.59-.17-1.05-.23-2.14-.14-3.2.27-3.12.64-6.23.98-9.41-.48,1.09-.95,2.13-1.41,3.18l-.35-.09c.15-.62.31-1.25.48-1.95-.74-4.19,1.68-12,4.83-14.46-1.34,3.03-2.33,5.73-2.74,8.63,1.03-2.52,2.06-5.03,3.17-7.77.59,1.49-1.05,2.56-.1,4.04.54-.81,1.02-1.46,1.08-2.34.3-.43.59-.85.89-1.28.24-.22.48-.44.88-.81.1.38.31.79.22.88-1.74,1.73-1.68,3.99-1.83,6.16-.22,3.27-.16,6.56-.53,9.81-.51,4.42-.34,8.84-.23,13.24.1,4.18.61,8.34.93,12.52-1.04.4-.95-.74-1.48-.99-.03-1.28-.02-2.55-.1-3.83-.22-3.74-.62-7.47-.67-11.21-.05-4.02.22-8.04.36-12.05.01-.4.15-.79.19-1.18.22-2.05.42-4.1.66-6.43-.26.37-.36.46-.4.58-1.15,3.43-2.32,6.85-3.43,10.29-.2.62-.19,1.33-.17,1.99.1,3.41.21,6.83.39,10.24.09,1.72.33,3.43.53,5.49.25-2.4.45-4.43.66-6.46l.22.03c.18,3.94.35,7.88.53,11.88.3-.15.47-.24.62-.32.2.33.4.65.6.97,0,2.42,1.05,4.54,1.97,6.69.95,2.22,1.98,4.4,2.96,6.6,1.57,3.51,2.51,7.24,3.02,11,.4,2.96.34,6.06-.05,9.03-.62,4.83-1.7,9.6-2.52,14.4-.12.73.13,1.53.21,2.3l.09.08c-.22.39-.43.79-.84,1.53.14,2.63.3,5.63.47,8.74-.35-.12-.54-.19-.73-.25.24,2.71.47,5.42.73,8.33-.94-.51-.74-1.31-.99-1.9-.24-.57-.61-1.08-.93-1.62-.12.23-.23.46-.51,1.01-.6-3.2-1.25-6.06-1.66-8.96-.26-1.87.03-3.74,1.22-5.42-.58-5.71.26-11.31,1.8-16.82.13-.48.58-.87.92-1.34.55-8.18-.96-16.08-4.16-23.67-.24-.56-.67-1.04-1.16-1.47-.56-1.5-1.13-3-1.75-4.64.23-1.1.12-2.24-.66-3.39-.96-1.43-.82-3.21-1.09-4.85-.28-1.7-.4-3.43-.86-5.14.13,2.13.23,4.25.4,6.38.13,1.67.31,3.33.56,4.99.14.91.33,1.88.75,2.68,3.36,6.4,5.32,13.3,7.16,20.24.26.97.4,1.97.5,2.97.12,1.13,0,2.23-.34,3.36-1.03,3.39-1.9,6.83-2.85,10.25-.56,2-1.18,3.98-1.76,5.98-.13.45-.25.91-.27,1.37-.16,4.85.24,9.65,1.71,14.31.12.38.25.77.31,1.16.07.45.08.91.13,1.5-.94-.21-1.23-.83-1.47-1.52-.91-2.61-1.5-5.28-1.59-8.05-.05-1.68,0-3.35-.15-5.04-.38,1.97-1.21,3.83-.72,5.97.68,3,1.15,6.04,1.67,9.07.11.63.26,1.31-.36,2.04-.27-.4-.58-.68-.65-1.01-.63-3.35-1.42-6.68-1.76-10.06-.21-2.1.15-4.28.5-6.39.56-3.41,1.32-6.8,2.35-10.15-.15,1.68-.3,3.37-.45,5.05.08.01.17.02.25.03.82-3.5,1.9-6.96,2.38-10.51.59-4.31-.22-8.51-2.66-12.33.21,2.39.33,4.79.64,7.17.32,2.5.18,5-.75,7.27-1.18,2.9-1.61,5.92-2.18,8.93-.46,2.43-.83,4.88-1.14,7.33-.24,1.86-.31,3.74-.49,5.6-.29,2.86-.02,5.68.69,8.4-.74.43-1.07.09-1.25-.38-.28-.75-.58-1.52-.7-2.3-.34-2.25-.59-4.51-.86-6.76-.05-.44-.06-.89-.24-1.34-.06.76-.12,1.53-.18,2.29-.11.03-.23.06-.34.1-.36-.67-.72-1.33-1.08-2,.26,2.08.16,4.27,1.83,6.16-.45.17-.89.33-1.51.57-.35-.82-.75-1.45-.89-2.14-1.36-6.55-2.82-13.08-3.95-19.66-.67-3.86-.48-7.79.75-11.62,0,.39.09.8-.01,1.15-.59,1.99-.23,3.95-.04,5.96.54,5.75,1.98,11.32,3.27,16.94-.16-1.44-.35-2.88-.48-4.33-.16-1.73-.38-3.47-.36-5.2.02-2.61.29-5.22.35-7.83.07-3.09.18-6.2,0-9.28-.11-1.71-.71-3.41-1.24-5.06-.84-2.62-1.81-5.19-2.72-7.79-.39-1.12-.77-2.26-1.16-3.38l-.03-.02c-.35-1.77-.75-3.53-1.03-5.31-.28-1.78-.51-3.58-.6-5.38-.06-1.12.16-2.25.3-3.81-.69-2.84-1.38-6.11-1.13-9.5.06-.8.14-1.6.29-2.38.24-1.3.25-2.53-.56-3.67-2.31-3.25-3.04-7.12-4.33-10.78-.6.6-.57,1.32-.35,2.13.81,2.9,1.66,5.79,2.37,8.72.58,2.4,1.25,4.83,1.34,7.27.08,2.04-.11,4.26-1.91,5.94.13-1.54.09-3.12.43-4.61.39-1.71-.06-3.33-.25-4.96-.18-1.58-.75-3.12-1.21-4.66-.46-1.53-.99-3.04-1.77-4.53.08.72.14,1.45.25,2.17.57,3.76,1.37,7.51,1.66,11.29.25,3.23-.44,6.4-2.42,9.15-.52.72-1.38,1.38-.99,2.54.15-.1.28-.2.43-.3.15.11.3.23.45.35.73-1.16.85-2.67,1.99-3.72.14.34.23.58.37.91.29-.43.55-.81,1.04-1.52-.18,2.5-1,4.54-.71,6.89.83-3.29,1.61-6.37,2.45-9.7.33.43.59.62.62.84.75,5.41,1.49,10.83,1.86,16.37-.27-.46-.53-.91-.82-1.41-.03.14-.12.3-.09.43.28,1.51.65,3.01.86,4.53.31,2.32.65,4.64.7,6.97.05,2.57.36,5.07,1.04,7.54.08.3.11.61.19,1.06-1.32-.37-1.49-1.46-2-2.26l-.08-.07ZM88.18,130.72c.21-1.29.43-2.39.58-3.51.15-1.12.5-2.3.29-3.37-.58-2.88-1.35-5.72-2.14-8.55-.94-3.35-2.03-6.66-2.96-10.01-.75-2.68-.48-5.42-.16-8.14-.87-.06-.6-.72-.58-1.19.07-1.47.28-2.93.28-4.4,0-1.53-.18-3.07-.34-4.6-.18-1.73-.34-3.46-.67-5.16-.7-3.6-1.5-7.17-2.26-10.75-.23.94-.24,1.86-.05,2.74.57,2.62,1.04,5.25,1.04,7.94,0,2.9-.64,5.71-1.34,8.5-1.01,4.02-1.34,8.01-.12,11.95.16-1.72.35-3.51.49-5.3.14-1.73.43-3.43,1.09-5.08v2.04c.9-1.41.47-2.6.67-3.67.21-1.15.38-2.31.57-3.47.19.45.24.9.24,1.36.03,3.83.03,7.66.08,11.49.01,1.2.13,2.4.22,3.96-.33,1.25-.65,2.86-.23,4.54.34,1.36.59,2.74.93,4.11,1.45,5.91,3.09,11.77,3.95,17.81.03.23.24.43.44.75ZM77.05,97.13c-.13.9-.29,1.4-.25,1.89.14,1.66.17,3.37.56,4.97.86,3.5,1.83,6.99,2.92,10.43,1.4,4.41,3.31,8.66,3.94,13.59.53-1.1.92-1.9,1.36-2.83-1.28-5.34-2.58-10.79-3.89-16.25-.31,1.25.19,2.59-.37,4.18-.28-.73-.51-1.15-.59-1.59-.2-1.12-.29-2.25-.49-3.37-.19-1.04-.42-2.02-1.01-2.98-1.03-1.68-1.17-3.67-1.37-5.6-.07-.7.2-1.48-.82-2.44ZM77.24,95.38c.11.01.23.03.34.04.51-1.81.67-3.72,1.07-5.56.73-3.32,1.51-6.67,1.14-10.09-.36-3.32-.88-6.54-2.06-9.68-.17,1.17-.33,2.28-.52,3.56.35,1.52.44,3.09.33,4.64-.21,2.86-1.11,5.63-1.25,8.5-.14,2.87.54,5.76.94,8.59ZM85.48,127.42c-1.86,3.28-.81,13.61.43,19.8.52-1.5.94-2.83,1.43-4.13.48-1.27.86-2.58.61-3.92-.3-1.59-.13-3.16-.03-4.74.01-.2-.05-.39-.09-.69-1.07-.79-1.13-2.11-1.46-3.32-.24-.88-.52-1.76-.89-3ZM75.29,74.49c-1.95-5.99-1.5-5.79-2.91-6.67-.25,4.07,1.29,9.21,3.74,12.13v-5.33c-.25-.04-.55-.09-.83-.13ZM97.52,135.36c-.29,1.64-.6,3.41-.9,5.18-.4,2.36-1.18,4.67-.86,7.13.21,1.65.37,3.31.54,4.97-.06-5.32,1.38-10.43,2.14-15.5-.37-.71-.68-1.31-.92-1.78ZM89.46,140.94c.48-1.67.93-3.34,1.43-5,.62-2.02.93-4.03.22-6.1-.21-.63-.3-1.3-.43-1.88-.55,1.71-1.12,3.47-1.7,5.26.43,2.53,1.07,5.08.47,7.71ZM71.54,106.57c.49,1.69.96,3.43,1.52,5.14.55,1.71,1.19,3.39,1.85,5.26.23-2.57-1.7-10.9-2.87-12.77-.14.68-.29,1.4-.49,2.37ZM86.53,158.33c.57-4.26,1.18-8.86,1.8-13.47-.8,1.69-1.6,3.48-1.97,5.32-.38,1.9-.18,3.84-.07,5.76-.06,0-.12,0-.18.01.16.91.33,1.83.42,2.38ZM80.4,57.23c-.3,3.11-.59,6.07-.87,9.04.04,0,.08,0,.11,0,.72-3.06,1.44-6.12,2.2-9.35-.53.12-.83.18-1.45.32ZM83.79,140.87c-.4,4.98-.02,9.4,1.02,11.72-.36-4.15-.69-7.94-1.02-11.72ZM78.64,69.1v-6.64c-.6,1.61-1.06,2.83-1.54,4.09.47.78.91,1.5,1.54,2.55ZM95.77,160.39c-.16-1.31-.28-2.63-.48-3.94-.2-1.3.32-2.72-.74-4.17-.17,2.97.07,5.59,1.22,8.1ZM99.03,133.91c.96-3.4.15-6.52,0-9.64v9.64ZM73.65,99.52c-.38,2.73,0,5.15,1.02,7.49-.33-2.43-.67-4.86-1.02-7.49Z"/>
        <path class="cls-2" d="M218.41,57.31c-.33-.94-.65-1.89-.98-2.83-.05,0-.1,0-.15,0,.09.85.18,1.71.29,2.69-.46.04-.89.07-1.39.12-.13-.62-.24-1.13-.35-1.67-.56,3.44-.13,7.02-1.76,10.46-.08,3.35.38,6.87.68,10.41.37,4.31,1.7,8.38,2.65,12.55.33,1.43.52,2.89.79,4.34.69,3.65,1.96,7.05,4.14,10.1.74,1.03,1.32,2.18,2.01,3.32,1.8.38,2.88,1.82,4.05,3.08,1.49,1.63,2.97,3.31,3.57,5.53.12.45.37.99.22,1.36-.66,1.67-.06,3.26.16,4.87.45,3.28-.65,6.01-2.77,8.46-1.7,1.96-3.99,2.76-6.38,3.1-2.61.38-4.96,1.33-7.06,2.76-3.88,2.65-11.69,2.58-15.28-.93-.28-.28-.62-.5-1.02-.82.15-.3.29-.57.41-.8.24.04.39.01.49.08.84.56,1.65,1.17,2.51,1.67.44.26.99.34,1.48.51,2.85,1.65,5.72,1.37,8.74.16-.59-.68-1.21-.5-1.79-.48-2.32.1-4.64.22-6.97.33.67-.2,1.34-.41,2.08-.63-.6-.09-1.18-.17-1.93-.27,2.36-.73,7.34-.34,9.36.7.46-.22.98-.47,1.92-.92-2.69-.14-4.98-.17-7.11-1.07,2.91-.53,5.8-.25,8.69,0-1.44-.37-2.88-.73-4.32-1.1.02-.14.03-.27.05-.41,1.18.05,2.4-.05,3.55.19,3.16.66,6.18.14,9.05-1.05,2.63-1.09,4.22-3.23,4.88-6.03.31-1.31.49-2.6.07-3.96-.19-.62-.41-1.33.04-2.12.25-.44-.11-1.28-.29-1.91-.57-1.96-1.56-3.69-3.17-5.33h1.46c-1.36-1.44-2.56-2.62-3.76-3.69.4,2.46.79,4.93,1.29,7.99.47.7,1.85,1.79.58,3.77-.37-1.25-.08-2.57-1.17-3.31-.16.12-.31.23-.47.35-.06-.12-.17-.23-.16-.34.24-2.54-.6-4.87-1.54-7.14-.58-1.41-1.54-2.66-2.32-3.98-.89-1.52-1.78-3.04-2.42-4.72.27.14.53.29.8.43.02-.12.1-.28.05-.36-1.73-3.02-3.48-6.03-5.12-8.85v-1.89c-.92-1.18-1.82-2.34-2.8-3.59.18-.25.37-.5.58-.79,1.85,1.34,2.64,3.43,4.19,5.25-.04-1.85-.93-2.99-1.87-4.13-1.41-1.69-2.76-3.43-3.92-5.42.41.27.82.53,1.24.8.06-.06.12-.11.18-.17-.73-.93-1.46-1.86-2.2-2.78-.68-.85-1.67-1.46-2.19-2.45.1-.1.2-.19.3-.29,1.56,1.51,3.11,3.02,4.67,4.53-.71-2.57-2.78-4.12-4.53-6.04,1.46.37,2.07.98,5.46,5.35,0-1.77-1.85-2.54-1.72-4.4.48.69.84,1.19,1.39,1.97-.06-.8-.08-1.33-.15-1.86-.05-.4-.19-.79-.21-1.18-.16-3.08-.28-6.16-.46-9.24-.13-2.14-.42-4.26-1.36-6.24-.97-2.05-2.42-3.68-4.13-5.14-1.28-1.09-2.53-2.22-3.66-3.45-1.86-2.04-2.41-4.6-2.51-7.26-.08-2.15.1-4.31-.05-6.45-.27-3.92-1.3-7.64-3.28-11.08-1.33-2.3-3.4-3.46-5.94-3.6-2.88-.17-5.78-.06-8.67-.07-.11,0-.23.11-.38.19-.14,1.09-.28,2.2-.44,3.31-.01.1-.19.18-.36.33-.06-.18-.18-.34-.15-.47.58-2.82-1.05-5.1-3.91-5.36-2.22-.2-4.42.01-6.59.52-2.12.49-4.28.47-6.4.06-2-.38-3.87-.24-5.66.73-.77.42-1.51.87-2.28,1.29-2.11,1.14-4.3,1.51-6.57.5-2.9-1.29-5.63-.89-8.24.75-.68.43-1.32.93-1.94,1.43-1.25,1.01-1.62,2.11-1.06,3.52.75,1.88,1.98,3.37,3.99,3.99,2.19.67,4.39,1.03,6.72.53,1.69-.36,3.47-.29,5.19-.52,3.25-.43,6.49-.9,9.72-1.4,2.61-.4,5.21-.87,8.07-1.35-.33.35-.43.57-.58.62-3.63,1.18-7.32,2.12-11.11,2.62-2.39.31-4.78.58-7.17.87-.13.02-.28.02-.39.08-2.79,1.32-5.76,1.05-8.71,1.05-.8,0-1.61,0-2.46,0,.17.34.3.59.57,1.12-2.74-1.05-5.2-2-7.66-2.95.01-.1.02-.19.04-.29h1.23c-.74-1.43-.95-2.79.14-4.33v2.71c1.13.44,2.09.81,3.36,1.3-1.55-2.15-2.96-4.05-2.24-6.77-2.94-.14-5.8.14-8.45,1.34-2.24,1.01-3.54,2.83-3.43,5.44.02.53,0,1.06,0,1.84.73-1.05-.07-2.21.82-3.07-.19,6.08,1.61,6.77,5.9,8.37-1.31-1.66-2.52-3.2-3.74-4.74-.08.14-.22.38-.42.72-.7-1.34-1.19-2.62-.87-4.19.86.96,1.63,1.83,2.41,2.71-.1.2-.33.48-.27.59.29.51.67.96,1.01,1.43.98.43,1.91.83,2.85,1.24.02-.06.04-.12.05-.18-.85-.77-1.7-1.54-2.56-2.32,1.11.59,2.23,1.17,3.32,1.75.85-.04,1.69-.08,2.52-.12,0,.1.02.21.02.31-.51.07-1.01.15-1.62.24.59.78,1.33.97,2.16,1.03,1.53.1,3.06.35,4.6.35,1.53,0,3.07-.22,4.59-.38.93-.09,1.86-.22,2.77-.39.59-.11,1.28-.18,1.71-.53,2.17-1.77,4.81-2.28,7.41-2.83,2.58-.55,5.2-.91,7.87-1.15-.49.26-.98.52-1.82.96,1-.12,1.63-.2,2.24-.28.03.2.06.38.1.57.66-.16,1.23-.31,1.87-.47-.24-.14-.45-.26-.92-.54,1.57-.59,2.97-1.11,4.37-1.63-.03-.09-.14-.35-.33-.85.66.15,1.15.26,1.68.37.23.37.45.73.72,1.17.29-.25.48-.42.65-.56-.03-1.19-1.21-1.15-1.79-1.77,1.68-.08,1.75-.03,2.58,1.68-.1.8-.52,1.3-1.33,1.55-8.45,2.62-16.87,5.35-25.36,7.86-3.28.97-6.74,1.26-10.16.96-3.47-.31-6.9-.87-10.02-2.65-2.01-1.15-3.53-2.64-4.21-4.9-.06-.19-.11-.39-.18-.58-.02-.05-.1-.09-.28-.25-1.66.14-3.44.13-4.94,1.43-.69.59-1.61.93-2.68,1.53-.27-.22-.5-.42-.96-.8,1.94-1.19,3.46-2.12,4.98-3.06h3.85c.1-.82.05-1.79.34-2.65.76-2.2,2.24-3.84,4.45-4.64,2.34-.85,4.82-1.18,7.3-1.21,1.4-.02,2.53-.37,3.71-1.2,2.03-1.43,4.24-2.68,6.88-2.46.99.08,2,.28,2.92.64,2.36.9,4.58.8,6.74-.55.68-.43,1.43-.74,2.15-1.11,1.86-.94,3.77-1.26,5.85-.74,2.86.71,5.7.18,8.52-.38,3.07-.62,6.02-.61,8.54,1.74,1.55,0,3.1-.05,4.64.01,1.87.07,3.74.24,5.61.33.93.05,1.85,0,3.21,0,.89.26,2.21.66,3.55,1.02,5.49,1.48,10.97,3.02,16.5,4.39,2.26.56,4.6.82,6.92,1.09,1.93.22,3.88.44,5.81.35,3.74-.18,7.48-.6,11.03-1.94.5-.19,1.09-.33,1.43-.69.93-1,2.14-1.33,3.36-1.69.97.2,1.81.55,2.24,1.51.4,1.68-.24,2.98-1.34,4.22-2.56,2.87-5.88,4.41-9.42,5.58-1.37.45-2.81.68-4.28,1.03,2.35,1.44,4.73,2.75,6.93,4.88.05.56.12,1.41.16,1.9-.49,1.15-.83,1.97-1.19,2.83-.59-2.37-.87-4.87-2.75-6.75.9,2.55,1.74,5.1,1.18,7.92-.13-.44-.26-.88-.41-1.31-.2-.57-.46-1.12-.61-1.7-.13-.49-.07-1.03-.22-1.51-.13-.42-.37-.84-.66-1.16-.49-.52-1.06-.96-1.87-1.68.76,1.83,1.57,3.32,1.99,4.91.45,1.66.54,3.42.81,5.28-.15.57-.33,1.27-.64,2.44-.1-.82-.18-1.21-.18-1.61-.04-4.03-.9-7.8-3.3-11.13-.45-.62-.7-1.37-1.12-2.22,1.27-.02,1.81.86,2.58,1.3-.49-1.75-.95-2.13-2.72-2.15-2.09-.02-4.18.11-6.25,0-3-.16-6-.47-9-.74-3-.27-6-.57-8.99-.88-.92-.09-1.83-.24-2.79-.37.09,1.97.17,3.82.26,5.74,1.32-.5,2.59-.98,4.05-1.53-.12.46-.17.67-.22.87,1.74.25,3.28.04,4.57-1.4.76-.85,1.83-1.32,3.12-.68-.91.41-1.75.79-2.47,1.11-.72,2.31-.85,4.38-.34,6.55.24,1.02.04,2.14.04,3.23,2.16,2.21,1.92,5.18,2.72,7.84-.11-2.51-.25-5.02-1.2-7.43-.49-1.23-.91-2.52-1.12-3.83-.32-2,.19-3.86,1.62-5.48.43-.25.92-.53,1.64-.95-.25.71-.42,1.19-.63,1.79.32.05.61.1.98.16.39-.55.75-1.08,1.19-1.7.16.56.28.96.4,1.36.01.04.12.05.21.09.14-.26.29-.53.47-.86.24.02.5.05.81.08.1-.36.2-.73.33-1.18.1.14.22.22.22.3-.07,1.13-.08,2.27-.27,3.38-.4,2.26.3,4.25,1.39,6.13.23.4.77.62,1.23.98.87-1.15-.04-2.09.03-3.04.07-.99-.06-2-.11-3.26.08-.13.31-.5.36-.57-.24-1.36-.42-2.38-.62-3.4-.05-.24-.21-.46-.32-.68,0,0-.09-.08-.09-.08.16-.1.32-.19.66-.39.83,2.75,1.68,5.4,2.41,8.08.28,1.01.71,2.19-.81,2.81-.26.11-.26.84-.4,1.34-.52.18-1.02.35-1.65.57.55,1.47,1.11,2.94,1.66,4.4.12-.01.24-.03.36-.04-.3,2.69-.61,5.39-.91,8.08-.12,0-.24,0-.36,0-.09-.49-.18-.99-.29-1.57-.36,1.48-.48,2.96-1.72,4.32.65-3.4,1.25-6.51,1.84-9.56-.2-.71-.37-1.32-.54-1.94-.05,0-.11.01-.16.02v2.31c-.38.05-.67.09-.94.13-.35.29-.71.6-1.08.91l-.06-.05ZM216.03,33.91c-.3.22-.6.44-1.17.86,1.19-.14,2.1-.31,3.01-.34,1.25-.04,2.51.01,3.77.06.86.03,1.72.24,2.57.18,1.07-.08,2.12-.36,3.18-.55-1.9-.32-3.81-.46-5.72-.6-.2-.01-.42.03-.6-.04-1.76-.7-3.39.05-5.06.43-.16-.11-.31-.29-.48-.32-2.32-.3-4.64-.56-6.95-.87-1.19-.16-2.37-.38-3.55-.57v-.25c1.25-.06,2.48-.11,3.72-.17,0-.04-.01-.08-.02-.13-2.37-.15-4.73-.3-7.37-.47.25.84.4,1.36.53,1.78,1.04-.09,1.85-.32,2.61-.19,3.82.67,7.67,1.02,11.54,1.17ZM197.64,23.31c1.07,1.92,1.98,3.54,2.84,5.08h4c.02-.1.05-.28.08-.49,1.53.55,2.99,1.07,4.45,1.59l-.06.22c-.9-.07-1.81-.14-2.92-.23,1.87,1.85,4.09,1.49,6.11,1.66.06.27.1.45.15.68,3.27.01,6.49.77,9.67.33-3.48-.61-7.01-1.23-10.55-1.86,1.82-.58,11.89.74,15.97,2.02h-3.23c1.97,1.13,3.67.82,5.36.16.28-.31.54-.61.73-.83,4.49-1.17,8.91-2.15,12.82-4.41.36-.59.66-1.09,1.04-1.73.22.68.38,1.18.52,1.64-.38.58-.72,1.1-1.06,1.62,1.41-.68,2.24-1.65,1.67-3.49-.51-.21-1.15-.47-1.64-.67-4.62,2.85-9.38,4.53-14.56,4.88-3.77.26-7.49-.27-11.19-.92-4.88-.86-9.63-2.27-14.38-3.69-1.85-.55-3.72-1-5.83-1.56ZM204.83,41.06c-1.3,2.53-.7,5.28-.89,7.8,1.32,2.24,3.83,4.57,4.35,4-.02-.26-.04-.57-.06-.88-.4-.02-.7-.04-1-.06-.12-.66-.21-1.17-.28-1.56-.44-.29-.75-.51-1.11-.75,0-1.14-.03-2.21,0-3.28.03-1.06-.11-2.15.46-3.18.05.85.09,1.71.14,2.56.06,0,.11,0,.17,0,.19-1.41.39-2.82.62-4.52-.54.35-.77.48-.98.64-.26.19-.5.4-.67.53-.16,2.17.21,4.22-.25,6.68-.35-.65-.61-.91-.62-1.19-.09-2.26-.29-4.52.1-6.8ZM226.41,34.97c5.89.22,11.24-1.33,15.96-4.93-1.04.35-2.02.86-2.99,1.37-.59.31-1.16.67-1.77.91-3.61,1.39-7.47,1.72-11.19,2.65ZM147.05,40.8c-2.37.16-4.74.32-6.44.43-3.16-1.06-5.71-1.91-8.59-2.87.8.93,1.38,1.61,1.92,2.24,4.39,1.16,8.74,1.17,13.11.2ZM215.7,44.11c.51,1.62,1.02,3.14,1.47,4.68.26.9.3,1.88.68,2.71.38.83,1.06,1.53,1.61,2.28.06-.03.12-.06.18-.09-1.16-3.66-2.33-7.33-3.46-10.9-.11.3-.26.74-.47,1.31ZM212.97,40.96c-.8,2.34-.94,4.46.59,6.48.23.3.34.7.46,1.07.34,1.06.65,2.12.98,3.18l.23-.06c-.74-3.5-1.48-7.01-2.26-10.67ZM210.44,50.85c-.17-2.31-.39-4.61-.48-6.92-.05-1.23.13-2.48.22-3.82-.82.64-.96,1.45-.98,2.34-.07,2.87.09,5.71,1.24,8.4ZM152.49,39.22l.2.45c2.7-.88,5.39-1.76,8.09-2.64-.04-.13-.08-.25-.12-.38-2.61,1.24-5.64,1.08-8.17,2.58ZM142.97,35.16c.02-.08.03-.16.05-.24-1.81-.7-3.61-1.41-5.54-2.16.59,1.35.64,1.53,1.4,1.7,1.35.3,2.73.48,4.09.7ZM202.35,41.2c.17,1.57-.37,3.11.73,4.51-.09-.96-.19-1.92-.31-3.12.36-.55.83-1.3,1.31-2.04-.07-.08-.14-.16-.21-.24-.48.28-.96.56-1.51.88ZM146.2,39.51c-1.31.16-2.62.42-3.94.44-1.27.02-2.53-.22-3.8-.35,2.59,1.33,5.17.46,7.74-.09ZM214.72,41.17c-.23,2.1-.58,4.26.74,6.63-.28-2.48-.51-4.56-.74-6.63Z"/>
        <path class="cls-2" d="M152.63,120.73c.49.93.98,1.87,1.7,3.25-.35-1.46-.6-2.48-.89-3.71.1-.48.23-1.17.38-1.89.86,1.8,1.7,3.57,2.54,5.34.1-.04.21-.08.31-.11-.47-1.44-.69-3.02-1.44-4.29-1.75-2.93-2.54-6.17-3.47-9.37-.35-1.21-.52-2.47-.77-3.71.08-.09.17-.18.25-.27.08.1.16.19.24.29.24.89.42,1.8.74,2.66,1.96,5.29,3.95,10.57,5.95,15.85.11.3.36.54.54.81l-.02-.02c.43,1.18.87,2.35,1.3,3.53.11.3.22.61.32.92-.49-.19-.98-.39-1.48-.58-.78-1.32-1.55-2.62-2.54-4.3.34,2.21.41,4.04.95,5.71.54,1.71,1.4,3.36,3.1,4.91-2.14-4.25-2.23-4.5-2.09-6.04,1.42,2.4,2.77,4.69,4.16,7.04.83.18,1.63.35,2.44.52-2.22-2.08-3.99-4.27-4.53-7.25.34.38.76.72,1.01,1.15,1.65,2.9,2.76,4.27,5.33,6.39h2.96c-.29-.32-.59-.66-.9-1,.05-.06.1-.11.15-.16.68.37,1.36.75,2.34,1.29.82-.15,1.96-.36,3.09-.57.01-.11.02-.22.03-.33-.27-.11-.53-.22-.8-.33-.33-.54-.6-1.15-1.02-1.62-1.23-1.38-2.15-2.92-2.63-4.73.43.2.74.48,1.01.81.42.51.74,1.13,1.54,1.11.82,1.28,1.64,2.56,2.39,3.74.86.26,1.5.84,2.22.1-.14-.27-.28-.54-.59-1.14.65.33,1.03.52,1.49.76.21-.12.49-.27.88-.49-1.94-1.49-3.8-2.88-4.74-5.62,2.33,1.54,3.66,3.53,5.6,5.03.49-.41.99-.82,1.55-1.27-.32-.38-.57-.68-.83-.98.07-.08.14-.16.2-.24.33.19.64.43.99.55.22.07.5-.05.9-.1-.38-.44-.62-.73-.87-1.02.06-.07.12-.15.19-.22.45.21.9.41,1.78.82-1.92-2.36-4.36-3.75-4.9-6.58,1.66,1.91,3.32,3.83,5.07,5.85.57-.1,1.06-.19,1.55-.28-1.08-1.27-2.17-2.54-3.25-3.81-.02-.22-.04-.43-.05-.65.09-.07.19-.13.29-.19,1.62,1.42,2.93,3.19,4.78,4.38-1.42-1.8-2.84-3.6-4.34-5.5.18-1.76.39-3.46.5-5.18.04-.55-.19-1.12-.3-1.69v.02c.01-1.39.01-2.79.01-4.18.11-.01.22-.02.34-.03.24,1.39.47,2.79.71,4.18.04,0,.07.02.11.03v-3.74c.69,2.62,1.11,5.23,1.34,7.86-.13.03-.26.06-.39.09-.25-.65-.5-1.31-.77-2-.23.11-.47.22-.69.33.11,1.5.21,2.94.32,4.54.37.53.84,1.18,1.38,1.95,1.53-.44,1.46,1.39,2.47,1.82l.87.86c1.13,1.03,2.21,2.14,3.42,3.07.72.56,1.66.93,2.57.18l.1-.07c1.07.48,2.17.39,3.67-.14-2.07,1.49-4.07,1.85-6.15,1.21-1.15-.35-2.3-.76-3.36-1.31-2.51-1.32-4.68-1.09-6.79.89-1.75,1.64-3.72,3.03-6.02,3.9-3.08,1.16-6.2,1.48-9.45.93-3.09-.52-6.2-.89-9.3-1.35-2.04-.3-4.08-.66-6.12-.96-.3-.04-.62.08-.93.13l-.07-.06c-.03-.32-.06-.64-.09-1.02-2.38-.29-4.54-1.12-6.57-2.22-.62-.34-1.54.29-1.86-.69.05-.05.1-.11.14-.16.16-.12.32-.24.71-.53,2.24.64,4.52,1.9,7.01,2.78-1.14-.92-2.33-1.78-3.39-2.77-1.04-.97-2.08-1.96-2.73-3.26-.68-1.38-1.45-2.74-2.04-4.16-.55-1.33-.92-2.74-1.19-4.18,1.2,1.44,1.66,3.23,2.43,4.87.79,1.67,1.23,3.55,3,4.66-.11-.56-.21-1.13-.32-1.69.05-.05.11-.1.17-.15,1.1,1.51,2.19,3.03,3.32,4.51.69.9,1.44,1.76,2.15,2.62.91.2,1.74.38,3.05.66-2.84-1.96-5.33-3.65-5.85-7.39.52.52.8.72.98.99,1.14,1.66,2.17,3.4,3.74,4.71.39.33.88.53,1.33.8.31.29.63.59.94.88.8.15,1.61.29,2.53.46-.08-.6-.13-.97-.17-1.34.55.46,2,1.38,2.24,1.38-1.58-1.85-2.82-3.86-3.52-6.18-.17-.55-.35-1.18-1.12-1.21l.02.02c-.81-1.74-1.61-3.49-2.42-5.23-.13-.41-.26-.82-.4-1.23.06-.56-.33-1.22.38-1.63,0,0,.01.01.01.01Z"/>
        <path class="cls-2" d="M127.92,134.8c-.12-.64-.24-1.28-.36-1.93l.07-.06c1.68,2.54,3.87,4.6,6.24,6.46,2.29,1.8,4.65,3.52,6.9,5.21,2.08-.58,3.76-1.48,5.31-2.97-.71-.21-1.25-.44-1.82-.53-4.21-.64-7.65-2.68-10.54-5.75-.63-.67-1.08-1.36-.96-2.32l.15-.14c1.28,1.13,2.88,1.74,4.33,2.58,2.74,1.57,5.61,2.89,8.45,4.28.52.26,1.11.37,1.77.59.53-.75.99-1.4,1.45-2.05.05-.05.09-.11.14-.16.37-.52.74-1.04,1.11-1.57l.07.06c-.28,1.99-1.24,3.66-2.54,5.12-1.77,1.98-3.92,3.42-6.68,4.22.21,2.22-.75,4.13-1.63,6.07-.7,1.56-.94,3.14-.46,4.83.85,2.99-.14,5.79-.95,8.61-.05.17-.24.31-.46.59-.36-.23-.71-.45-1.02-.65-1.77.48-3.49,1-5.24,1.4-1.65.38-3.43-.18-5.28.5-.11-.42-.26-1.03-.42-1.64l.05-.04c.23.23.46.46.82.82,3.39-.42,6.87-.82,10.31-1.75.48-1.36,1.07-2.63.81-4.3-3.43,1.79-6.89,2.19-10.47,1.31-.31-.8-.54-1.42-.78-2.04.06-.05.13-.09.19-.13.42.51.83,1.02,1.28,1.56,3.57.28,7.01-.09,10.34-1.8-.3-1.06-.56-2-.83-2.94v.02c-.07-.24-.15-.47-.15-.5-2.14.18-4.14.51-6.12.48-2-.04-4.02-.31-5.43-2.1-.26-.33-.78-.47-1.17-.7-.43-.43-.86-.86-1.29-1.29l-2.24-2.49c1.21.24,2.05,1.03,2.94,1.73.56.44,1.17.82,1.76,1.22.56.65,1.12,1.3,1.81,2.1,1.76.13,3.49.17,5.23.47,1.62.28,3.22.05,4.77-.46-1.88,0-3.82.14-5.69-.09-2.15-.26-4.13-1.22-6.13-2.01-.28-.63-.57-1.26-1.02-2.26-1.3-1.35-3.54-2.28-5.32-4.35,1.66.12,2.68.8,3.59,1.61,1.05.93,2.07,1.93,2.99,3,1.1,1.27,2.46,2.03,4.05,2.5,2.34.69,4.69.88,7.39.51.1-.14.25-.29.3-.47.05-.18.01-.39.01-.72-3.72-.26-7.44-.62-10.96-2.26.11-.21.19-.36.33-.65-2.31-1.73-4.67-3.5-7.03-5.27.07-.11.14-.23.21-.34,1.42.75,2.84,1.5,4.26,2.25,1.2,1.15,2.41,2.3,3.78,3.61,3.15.67,6.45,1.37,9.91,2.1.25-.79.42-1.36.6-1.92-1.72-.18-3.24-.31-4.76-.49-2.59-.32-5.16-.69-7.36-2.31-.63-.46-1.45-.66-2.18-.98-1.19-1.24-2.44-2.44-3.55-3.74-.71-.83-1.38-1.75-1.51-2.95,1.61,1.05,2.49,2.79,3.88,4.04,1.44,1.29,3.02,2.36,4.75,3.15,1.68.77,3.49,1.33,5.3,1.77,1.86.45,3.78.64,5.86.97.24-.71.47-1.37.68-1.99-.53-.34-.91-.58-1.28-.83l.04-.05c.46-.02.91-.05,1.43-.08v-2.03c-4-1.88-7.53-4.34-10.22-7.92-.35-.47-.86-.82-1.3-1.23-.17-.17-.33-.34-.5-.51ZM139.22,137.75c1.86,1.71,4.19,2.66,5.77,2.52-1.92-.84-3.85-1.68-5.77-2.52Z"/>
        <path class="cls-2" d="M115.89,43.2c-2.45.56-4.88,1.14-7.35,1.59.07.5.17,1.2.28,2.01-.38-.19-.63-.31-1.1-.54.37.68.64,1.17.93,1.7-.14.69-.29,1.4-.44,2.11h0c-.51.99-1.03,1.99-1.54,2.99-.5.05-.94.09-1.48.15.03-.19,0-.39.08-.53.43-.81,1.16-1.53.74-2.7-.41.56-.78,1.08-1.16,1.6-.1-.05-.21-.11-.31-.16.61-1.3,1.23-2.59,1.87-3.95-.13-.25-.27-.53-.45-.88-1.03,1.17-2,2.27-2.95,3.36-.55-.34-.97-.61-1.4-.88,2.24-1.04,2.39-1.23,2-2.87-.32.52-.58.94-.79,1.27-1.4.09-2.69.17-3.98.25-.02-.09-.04-.18-.06-.27.38-.2.75-.4,1.19-.63v-1.71c-.75-.22-1.41-.42-2.07-.62.01-.12.03-.23.04-.35.62-.08,1.24-.16,1.94-.25.06-.21.14-.45.26-.86-1.7-.09-3.16-.56-4.4-1.91.52-.22.99-.42,1.47-.63-.03-.08-.05-.15-.08-.23h-1.33c.1-1.25,1.55-.75,1.85-1.6-.48-.48-.97-.97-1.43-1.43-.05.2-.15.55-.34,1.24-.33-.9-.56-1.51-.79-2.15-.1.15-.21.33-.42.68-.18-.48-.32-.86-.45-1.23-.14-.06-.25-.16-.37-.17-2.01-.06-3.99-.09-5.97.57-1.62.54-3.31.45-4.87-.45-.41-.23-.85-.41-1.26-.63-1.61-.86-3.24-1.58-5.13-1.59-.76,0-1.52-.34-2.47-.57.61-1.24,1.61-1.18,2.45-.96,1.74.46,3.45,1.06,5.16,1.65.57.2,1.12.48,1.62.81,1.15.75,2.44.9,3.69.63,2.21-.47,4.37-.49,6.76.15-.37-1.77.08-3.24,1.04-4.76.28.18.52.33.84.54.43-.46.87-.93,1.33-1.44.29.85.55,1.62.8,2.35.39-.06.81-.12,1.26-.19v5.3c1.02-.86.39-1.94.59-2.84.2-.9.31-1.81.47-2.77-.86-.43-1.59-.8-2.33-1.17.03-.09.07-.17.1-.26,2.41.53,4.82,1.07,7.46,1.66-.48.23-.71.34-1.05.5,1.19.55,2.29,1.06,3.88.52-1.52,1.28-2.73,1.17-7.69-.46,0,1.19.19,2.36-.05,3.44-.22.99-.9,1.88-1.38,2.8,1.3.16,1.79-.26,2.55-2.35.07.76.13,1.35.19,1.94.24-.09.49-.18,1.01-.38-.21.7-.35,1.11-.45,1.54-.1.43-.15.88.05,1.42.34-.66.68-1.32,1.02-1.99l.3.04c0,1.11-.09,2.23.02,3.33.11,1.09.42,2.16.67,3.4.17-.07.43-.18.71-.3-.15-1.91-.95-3.69-.45-5.88.3,1.43.54,2.57.79,3.72.08,0,.16-.01.24-.02v-3.79c.09-.02.18-.05.27-.07.75,1.56,1.51,3.12,2.3,4.75.41-.11.78-.2,1.28-.34-.29-.15-.48-.24-.81-.42,1.35-1.28,3-1.59,4.66-1.91.05.43.09.77.13,1.2-.28.18-.67.42-1.15.72.29.06.48.15.64.12.52-.1,1.04-.33,1.56-.33.41,0,.82.25,1.24.39h.01ZM100.76,40.69c.58-.77,1.22-1.35.31-2.11-.92.69-1.79,1.35-2.8,2.11h2.49ZM103.26,41.51c-.62,1.36-.96,3.04-.85,4.25q1-1.38.85-4.25Z"/>
        <path class="cls-2" d="M106.81,66.08c1.04,2.08,1.74,4.07,1.06,6.34-.22-.87-.44-1.74-.73-2.87-.15,2.12-.25,3.93.26,5.81.74,2.72.98,5.53.87,8.36-.04.94-.22,1.79-.78,2.74-.71-.77-.42-1.54-.49-2.22-.06-.66-.07-1.32-.2-1.98-.23,2.44-.45,4.88-.67,7.28.38,1.06.78,2.16,1.13,3.15v-2.13c.08-.03.17-.06.25-.09.17.29.34.58.51.87.14-.12.3-.24.45-.36,1.5.66,1.92,3.64.66,6.43-.24-1.94-.43-3.51-.62-5.08-.41,1.85.13,3.8-.99,5.56-.08-.62-.17-1.25-.28-2.05-.35.99.03,2.2-1.19,2.51-.27.72-.54,1.43-.81,2.15-.11-.02-.22-.05-.33-.07v-2.19c-.37.95-.68,1.74-1.02,2.61-.55-.51-.94-.86-1.39-1.27v-2.58c-.3.73-.51,1.23-.71,1.73-.1,0-.19,0-.29.01-.05-.4-.21-.81-.14-1.18.34-1.84.76-3.66,1.1-5.49.53-2.85.73-5.71.14-8.58-.08-.39-.06-.8-.06-1.21-.05-4.29-.63-8.53-1.19-12.77-.25-1.91-.3-3.85-.53-5.76-.08-.62-.44-1.21-.71-1.9.04-.06.19-.27.33-.46-.11-.71-.21-1.41-.31-2.1.79,3.23,3.2,5.5,4.74,8.28-.2-2.36-1.24-4.46-1.93-6.68-.29-.07-.53-.12-.99-.22-.45-1.62-.95-3.34-1.4-5.07-.05-.19.14-.43.34-.65.32,1.8.98,3.37,2.17,4.74.56.64.89,1.48,1.55,2.63-.2-1.44-.34-2.45-.48-3.45.14-.02.29-.04.43-.06.17,1.33.34,2.67.5,4-.11.03-.23.06-.34.09.52.84,1.04,1.67,1.68,2.7,1.35-1.57,1.79-3.36,2.83-4.88,0,1.37-1.03,3.66-2.41,5.38ZM102.95,68.89c-.07.02-.13.04-.2.05,0,1.2-.08,2.41.02,3.61.15,1.8.47,3.58.66,5.37.2,1.93.24,3.88.52,5.8.31,2.08.33,4.12,0,6.19-.28,1.71-.36,3.46-.52,5.19,0,.08.1.16.16.27.12-.53.24-1.04.38-1.65h1.74v-2.63c-.35.6-.65,1.1-.96,1.62-.82-.52-.63-1.12-.44-1.7,1.01-3.18,1.2-6.45,1.01-9.76-.07-1.13-.18-2.27-.4-3.38-.61-3-1.3-5.99-1.96-8.98ZM106.59,77.73c-.12-4.15-2.01-9.54-4.21-12.24,1.49,4.33,2.85,8.29,4.21,12.24Z"/>
        <path class="cls-2" d="M98.52,64.61c0-.85,0-1.71,0-2.56,1.09,5.41,1.93,10.81,1.97,16.32v-3.5c.46.62.8.91.75,1.05-.37,1-.22,1.95.05,2.95.19.69.09,1.47.11,2.21.02,1,.21,1.95.5,2.93.36,1.24.24,2.64.22,3.98-.01,1-.18,1.99-.31,2.98-.26,2.04-.54,4.07-.99,6.09-.53-1.7-.34-3.4-.2-5.1.06-.66.21-1.32.27-1.98.13-1.46.35-2.93.32-4.39-.03-1.37-.33-2.74-.51-4.11-.03.05-.1.1-.1.16-.14,3.01-.25,6.02-.41,9.03-.1,1.87-.26,3.74-.37,5.61-.04.78,0,1.56,0,2.38.26-.11.43-.18.6-.26.03.13.12.27.09.38-.66,2.52-.34,5.08-.27,7.61.02.6.53,1.2.87,1.76,1.41,2.28,2.97,4.47,4.26,6.82,2.05,3.73,3.22,7.76,3.78,12.01.42,3.16.51,6.27-.11,9.39-.1.5-.31.98-.74,1.45-.04-.42-.12-.83-.13-1.25-.01-2.08.05-4.17-.02-6.25-.13-4.26-1.11-8.33-2.72-12.28-1.31-3.2-3.23-6.02-5.09-8.89-.14-.21-.39-.35-.6-.52l-.02-.03c-.32-.66-.61-1.32-.96-1.97-.76-1.42-1.29-2.89-1.26-4.58.38.76.76,1.52,1.24,2.47.22-.77.38-1.32.56-1.95-.32-.12-.59-.22-1.01-.38v-1.72c-.15,0-.38.02-.78.04-.19-.41-.49-.86-.59-1.35-.2-1.05-.38-2.11-.42-3.17-.17-4.61-.52-9.24-.34-13.84.13-3.3.27-6.65,1.01-9.93.47-2.06.38-4.24.48-6.38.06-1.25.01-2.52.26-3.77.2.84.41,1.68.61,2.53.01,2.02.11,4.04,0,6.05-.1,1.79-.28,3.61-.71,5.34-.24.98-.48,1.92-.48,2.94.01,5.43-.24,10.87.44,16.29.09.74.27,1.47.41,2.2.59-3.15,1-6.27,1.01-9.4.03-5.36.35-10.73-.25-16.09-.22-1.93-.03-3.89-.08-5.84-.01-.49-.23-.98-.35-1.47Z"/>
        <path class="cls-2" d="M99,108.11c.24.17.48.33.73.5l.02.03c.9,1.79,1.68,3.66,2.74,5.34,1.32,2.09,1.95,4.42,2.49,6.73,1.63,6.95,1.28,13.83-1.22,20.55-.74,2-1.7,3.92-2.44,5.92-.41,1.1-.58,2.3-.55,3.52.12-.39.25-.77.38-1.17h.84c2.59-6.15,4.52-12.45,4.78-19.17.46,1.52.36,3.1.2,4.61-.49,4.55-1.61,8.95-3.51,13.13-1.06,2.33-1.56,4.82-2.03,7.31-.03.17.05.37.14.87,1.53-3.94,2.91-7.63,4.41-11.27.64-1.54,1.56-2.96,2.32-4.46.9-1.78,1.75-3.57,2.65-5.41.32,1-.23,1.83-.57,2.66-.51,1.24-1.11,2.45-1.76,3.62-2.13,3.86-3.47,7.98-4.26,12.29-.3,1.64-.35,3.33-.52,4.99-.05.49-.15.98-.26,1.7-.83-1.44-.89-3.35-.35-6.58-.85,1.31-1.38,2.77-1.37,4.73,0,2.41.2,4.81.29,7.22.02.57.23,1.23-.53,1.59-1.2-3.54-2.25-7.1-2.68-10.78-.37-3.16.02-6.3,1.04-9.32.84-2.47,1.74-4.93,2.72-7.35.67-1.64,1.12-3.25,1.09-5.06-.03-2.2.31-4.41.31-6.61.01-3.65-.53-7.21-2.4-10.45-.13-.23-.22-.48-.36-.78.27-.09.49-.17.87-.3-.92-2.63-1.63-5.34-3.26-7.67.02-.31.04-.62.06-.93ZM100.43,161.03v-9.29c-.32,1.46-.09,2.97-.38,4.37-.34,1.64-.31,3.14.38,4.92Z"/>
        <path class="cls-2" d="M144.53,83.51c1.49,1.36,2.07,3.25,2.83,5.01.5,1.15.74,2.4,1.24,3.61-.09-.85-.12-1.72-.28-2.56-.59-3.12-1.69-6.05-3.18-8.86-.78-1.46-1.33-3.05-1.95-4.5.32-1,.58-1.79.83-2.59.13.01.27.02.4.03.06.33.19.66.17.98-.1,1.53.38,2.91,1.06,4.24.81,1.59,1.6,3.2,2.38,4.78.13-.09.28-.18.51-.33.7,1.65,1.38,3.24,2.12,4.97.78-1.14.86-2.27.64-3.57-.14.07-.26.13-.38.19-.94-1.77-1.01-2.5-.41-5.88.05.47.11.95.15,1.42.04.53.05,1.06.19,1.6.23-1.3.45-2.59.68-3.89.09-.01.19-.02.28-.03.15.88.35,1.75.42,2.64.07.93.02,1.87.27,2.83.22-1.23.45-2.45.68-3.7.01,0,.08-.07.1-.05.05.03.13.1.13.15.04,2.15.07,4.3.1,6.45,0,.4-.04.79-.28,1.26-.16-.41-.33-.82-.49-1.22-.25,1.93-.43,3.82-.74,5.69-.3,1.8-.1,3.47.91,5.01.09.07.17.15.24.23.32.81,1.1,1.53.55,2.56-2.84-2.33-3.18-5.62-3.82-8.84,0,1.13.2,2.3-.04,3.38-.54,2.42-.05,4.74.36,7.09.08.48-.03,1-.37,1.53-.34-1.82-.69-3.63-1.1-5.79-.27,1.32-.47,2.35-.75,3.73-.65-2.74-1.12-5.16-1.82-7.51-.67-2.23-1.56-4.4-2.38-6.59-.89-2.38-1.88-4.72-2.69-7.12-.82-2.46-.72-4.96.25-7.44v5.12c.08,0,.17.01.25.02.07-.59.14-1.18.22-1.78.1,0,.2,0,.31,0,.02.74,0,1.49.08,2.23.09.79.29,1.57.44,2.36.15.84.15,1.75.47,2.52,1.5,3.63,3.08,7.22,4.59,10.73,0-.26.1-.69-.02-1.05-.74-2.29-1.52-4.57-2.3-6.84-.26-.75-.56-1.49-.85-2.23Z"/>
        <path class="cls-2" d="M287.84,196.28c.58.3,1.04.53,1.5.77.68-.32,1.28-.6,2.01-.93.95.75,1.85,1.69,2.95,2.24,1.03.52,2.26.64,3.51.96-1.14,1.15-2.4.54-3.46.08-1.08-.48-1.98-1.33-3.11-2.13-.37.16-.91.4-1.44.63-.74-.22-1.44-.43-2.17-.64-.53.47-1.08.95-1.69,1.5-1.92-.43-3.8-.78-5.03-2.59-.3-.44-.91-.68-1.57-1.15.45-.14.77-.23,1.17-.36v-3.14c-.79,1.17-1.47,2.17-2.29,3.39-.29-.54-.43-.8-.5-.95-.46.47-.98,1.01-1.57,1.62-1.11-.16-2.06-.29-2.69-.38-1.71-1.78-1.25-3.69-1.37-5.64-.54.6-.96,1.08-1.49,1.67v5.08c-2.22.79-3.37.39-4.9-1.69.68-1.88,2.93-2.24,4.06-4.16-.13-1.12-.29-2.5-.44-3.89-.15-1.39-.27-2.79-.46-4.66-2.63,4.26-4.23,8.47-6.17,12.64-.04-.32-.21-.68-.1-.94.81-2.13,1.63-4.26,2.54-6.35.73-1.66,1.59-3.26,2.44-4.87.36-.68.84-1.3,1.44-2.21,1.3,3.25.85,6.42,1.75,9.62.62-.84,1.12-1.52,1.66-2.26.13-2.51.18-5.06,1.16-7.46.08-.2.4-.3.64-.47.96.93.9,2.05.71,3.06-.26,1.37-.6,2.79-1.23,4.02-1.07,2.07-.64,4.2-.61,6.32.01.83.51,1.16,1.61,1.51.23-1.41.46-2.82.65-4.03,1.06-.7,1.63-.17,2.15.26.32-.21.57-.37.97-.63.1.86.18,1.52.26,2.17.86-.46.78-1.91,2.14-1.97.71-3.56,2.22-6.8,4.6-9.6.22-.26.6-.39,1.19-.31-.78,1.09-1.63,2.15-2.32,3.3-.69,1.15-1.32,2.36-1.78,3.61-.48,1.31-.74,2.7-.84,4.08v4.46c.95,1.32,2.54,1.89,4.3,1.9.74-.71.71-1.33.43-2.01-.21-.49-.41-1-.53-1.52-.38-1.67.3-2.96,1.96-3.69,1.18.57.97,1.6.77,2.58-.21,1.04-.51,2.05-.8,3.15ZM266.5,194.54c1,1.06,1.98,1.41,3.21,1.36-.07-1.26.21-2.43-.25-3.76-1.06.86-1.96,1.59-2.96,2.39ZM287.04,195.19q.85-2.03.62-3.63c-1.32.88-.96,2.02-.62,3.63Z"/>
        <path class="cls-2" d="M144.28,100.66c-.16-1.63-.22-2.96-.42-4.26-.61-3.93-2-7.64-3.24-11.39-.57-1.7-1.09-3.42-1.76-5.14.12,1.46.25,2.91.36,4.37.05.67.1,1.34.13,2.01.16,4.47,1.12,8.74,3.07,12.79,1.25,2.6,2.41,5.24,3.53,7.9.44,1.04.69,2.17.97,3.27.09.35-.05.75-.41,1.24-.25-.41-.56-.79-.73-1.23-.88-2.32-1.71-4.65-2.57-6.98-.11-.29-.29-.55-.57-1.07.07,2.41,1.6,4.41.48,7.09-.31-.95-.56-1.48-.65-2.03-.64-3.94-2.21-7.57-3.65-11.25-1.4-3.58-2.37-7.25-2.43-11.13-.05-3.42-.21-6.83-.35-10.25-.09-2.2-.27-4.4-.38-6.6-.02-.36.09-.73.34-1.09.04.25.11.51.12.76.15,3.21.25,6.42.46,9.62.22,3.4.46,6.81.83,10.2.24,2.16.8,4.28,1.81,6.48-1.3-10.49-2.63-20.76-1.13-31.14v9.12c.41.38.7.65.72.67.2,1.5.37,2.73.52,3.97.36,3.02,1.45,5.84,2.48,8.67,1.1,3.02,2.47,5.97,2.93,9.17.24,1.71.18,3.47.19,5.21,0,.26-.31.52-.63,1.02Z"/>
        <path class="cls-2" d="M123.97,56.54c-.23-.14-.46-.27-.65-.39-.05-.18-.13-.32-.11-.43.06-.33.15-.65.27-.96,1.08-3,0-5.55-1.76-7.88-1.65-2.19-3.47-4.26-5.18-6.41-.88-1.1-1.69-2.25-2.5-3.4-2.25-3.17-5.23-5.39-8.89-6.62-3.96-1.34-8.04-1.97-12.34-1.71.06.82.12,1.58.19,2.43.28-.41.53-.76.77-1.12-.07,1.76-.81,3-2.68,3.56.39-.8.71-1.44,1.02-2.09-1.54,1.15-1.55,1.16-3.1,1.03.56-.5,1.1-.98,1.95-1.74-.85.13-1.35.21-1.98.31.53-1.45,1.79-1.73,2.8-2.42v-1.2c.2-.11.32-.24.43-.23,2.47.17,4.94.28,7.39.56,3.9.46,7.59,1.66,10.89,3.83,2.33,1.53,3.95,3.78,5.62,5.96,1.71,2.23,3.36,4.52,5.21,6.63,1.75,2,3.14,4.15,4.01,6.78.2-.83.4-1.66.61-2.58-.29-.33-.58-.67-.87-1.01-.22.17-.37.29-.58.45-.57-1.04-1.14-2.07-1.75-3.2.35-.1.59-.17.81-.24.72.95,1.39,1.84,2.03,2.68,1.11-.41.64-1.15.64-1.78.21-.04.4-.07.59-.11l-.02-.02c.91.72,1.83,1.4,2.77,2.08-.07.11-.13.23-.2.34-.49-.23-.99-.45-1.63-.75v4.06s.07,0,.11.01c.11-.8.22-1.59.33-2.39.5,1.63.11,3.18-.13,4.72.3.11.52.18.84.3-.26.45-.49.84-.74,1.27.17.24.34.5.58.84-1.06,1.49-2.11,3-4.35,3.55.25-.56.41-.93.58-1.33-.56.04-1.11.09-1.91.15.4-.66.67-1.11.93-1.55,1.28-.47,2.25-1.34,3.19-2.35-.14-.6-.27-1.17-.4-1.69.67-1.94.41-3.86.2-5.78-.27.88-.48,1.78-.47,2.67.03,1.57-.24,3.07-.87,4.47-.43.95-1.09,1.8-1.65,2.69Z"/>
        <path class="cls-2" d="M99,108.11c-.02.31-.04.62-.06.93.03.27.02.55.1.8,1.1,3.19,1.68,6.53,2.54,9.78.42,1.6.58,3.3.62,4.96.09,3.36.11,6.73,0,10.09-.16,5.03-1.66,9.75-3.65,14.32-.07.17-.26.3-.39.44,0,0-.09-.08-.09-.08.58-2.19,1.17-4.38,1.73-6.58,1.43-5.64,1.92-11.39,1.41-17.15-.6-6.7-2.26-13.19-5.23-18.82-.13-1.18-.1-1.97-.32-2.69-.78-2.52-.96-5.11-1.24-7.7-.67-6.09-.43-12.21-.37-18.31.02-2.59.44-5.19.72-7.78.25-2.33.6-4.64.86-6.97.18-1.59.25-3.19.42-4.78.14-1.26.36-2.51.53-3.77.12-.84.22-1.68.34-2.64.54.06.85.47.8,1.02-.12,1.46-.33,2.92-.51,4.37-.07.53-.22,1.05-.26,1.58-.29,3.53-.49,7.08-.85,10.6-.25,2.45-.73,4.88-1.08,7.33-.09.6-.08,1.21-.08,1.81,0,2.82-.08,5.65.05,8.47.13,3,.48,6,.7,9,.14,1.84.21,3.69.36,6.44.7,1.26,1.82,3.3,2.95,5.34Z"/>
        <path class="cls-2" d="M163.49,63.73c.2-.98.86-.9,1.54-.62,3.93,1.61,6.13,4.03,6.63,8.74.05.43.07.86.29,1.3.15-1.72.32-3.44.44-5.16.11-1.61-.53-3.02-1.32-4.36-.73-1.23-1.98-1.76-3.27-2.2-1.31-.45-2.32-1.25-2.9-2.64.23.13.46.24.68.38.97.58,1.89,1.28,2.92,1.71,2.83,1.16,4.34,3.27,4.35,6.34,0,.91,0,1.82,0,2.79.33-.13.51-.2.87-.34-.11,1.34-.21,2.59-.32,3.94.49-.43.96-.83,1.43-1.25-.16,1.45-.19,1.5-1.34,2.57-.32.96-.59,1.77-.92,2.76.16.39.4.98.68,1.66-1.68-.42-2.23-1.32-2.71-4.35-.58-.34-1.25-.73-1.67-.98-1.52.13-2.71.34-3.9.31-2.94-.08-5.82-2.2-6.75-4.85,1,.03,1.91-.2,2.71-.84.28-.22.69-.29,1.05-.43.97-.23,1.94-.46,3.09-.73.7.74,2.36-.36,2.99,1.39-.48,1.27-.99,2.62-1.53,4.08h1.53c.53-.97,1.04-1.9,1.47-2.7-.21-1.04-.38-1.89-.56-2.79-.99-.9-1.66-2.34-3.41-2.05-.54-.14-1.07-.27-1.61-.41-.15-.43-.29-.85-.44-1.28Z"/>
        <path class="cls-2" d="M118.75,72.52c-.42,9.48.95,18.7,3.98,27.67-.31-1.69-.6-3.39-.95-5.08-.79-3.8-1.38-7.63-1.53-11.52-.12-3.21-.22-6.43-.37-9.64-.08-1.66-.32-3.32-.36-4.98-.04-1.81.62-3.62,1.87-5.59.13.37.33.64.3.88-.14,1.46-.39,2.91-.48,4.37-.05.78.15,1.58.25,2.55-.18-.06-.34-.12-.56-.2-.47,1.97-.8,3.93-.22,6,.26.94.07,2.01.09,3.01.07,4.23.75,8.39,1.42,12.55,1.03,6.37,2.86,12.52,5.03,18.58.25.71.4,1.47.3,2.34-.18-.16-.44-.29-.54-.5-1.15-2.26-2.45-4.46-3.37-6.81-1.98-5.06-3.22-10.33-4.14-15.68-.7-4.02-1.23-8.05-1.22-12.14,0-1.33-.29-2.65-.33-3.98-.02-.61.25-1.24.39-1.86.15,0,.29,0,.44.01ZM121.03,65.37c-1.18,2.31-1.23,4.43-.96,6.88.33-2.38.62-4.46.96-6.88Z"/>
        <path class="cls-2" d="M112.3,73.15c1.06,2.06,2.19,4.1,2.15,6.54-.26-.63-.52-1.26-.81-1.98-.36,2.21-.71,4.3-1.05,6.37-.24.08-.42.14-.6.2-.3.61.16,1.52-.96,2.03.2-.63.5-1.19.06-1.79-.63.83-.18,1.89-.57,2.87-.74-.61-.75-1.46-.74-2.34.02-1.05.02-2.16-.31-3.17v5.4c-.34-.32-.47-.74-.51-1.2-.04-.49-.09-.98-.17-1.47-.19-1.13-.2-2.25-.2-3.39-.01-2.24-.04-4.45-.19-6.68.11-.03.29-.07.59-.14-.07-1.21-.14-2.46-.21-3.76.54-.28.77-.83.92-1.39.18-.68.42-1.3.66-1.96.62-1.65,1.23-3.3,1.88-4.93.49,1.11-.22,3.66-2.82,9.8.21.35.48.81.74,1.27l.28-.11c-.07-.63-.15-1.25-.24-2.01.62.53,1.12.95,1.61,1.37.16.16.31.32.47.48Z"/>
        <path class="cls-2" d="M124.13,117.34c1.56,2.79,2.27,5.69,2.77,8.69.21,1.22.87,2.37,1.38,3.53.27.61.75,1.13.98,1.75,1,2.74,3,4.58,5.41,6.03,2.42,1.45,4.87,2.84,7.31,4.25.4.23.8.45,1.39.77-1.01.34-1.67-.11-2.29-.39-3.2-1.41-6.32-2.96-9.12-5.09-.93-.71-1.65-1.54-2.03-2.68-.21-.62-.56-1.21-.95-1.74-1.77-2.41-3.14-4.96-3.53-8.01-.19-1.51-.86-2.9-1.55-4.31-1.73-3.55-3.27-7.21-4.79-10.86-.84-2.04-1.49-4.16-2.2-6.26-.14-.42-.17-.88-.11-1.36,2.21,4.96,4.38,9.92,7,14.75,0-.4.08-.82-.01-1.2-.89-3.61-2.57-6.9-4.12-10.24-1.15-2.5-2.22-5.03-2.8-7.73-.23-1.08-.36-2.19-.3-3.34.18.41.49.81.51,1.23.14,2.9,1.43,5.41,2.54,7.99,1.35,3.14,2.74,6.27,3.97,9.45.57,1.47,1.18,3.03.54,4.77Z"/>
        <path class="cls-2" d="M192.62,60.94v3.76c.08,0,.17,0,.25,0,.06-.98.11-1.96.18-3.15.44.57.76.99,1.09,1.41.34,1.81-.2,3.72.48,5.75-.17,2.9-.36,6.08-.54,9.26-.28-2.99-.52-5.98-.07-8.99-.25.9-.51,1.8-.85,3.02-.3-.37-.46-.57-.41-.5.1-2.01.17-3.67.25-5.32-.69,1.09.09,2.46-1.04,3.7-.71-1.73-1.96-3.02-1.84-4.93.11-1.81-.17-3.58-1.03-5.26.11.84.22,1.68.34,2.52-.09.03-.18.06-.27.08-.2-.43-.4-.86-.6-1.29-.81-1.69-1.57-3.4-3.35-4.38-.69-.38-1.25-1.02-1.85-1.53.42-1.68-.57-2.68-1.04-4.02,1.31,1.09,2.62,2.19,3.98,3.32.17-.37.28-.6.5-1.09.3.82.54,1.45.81,2.18.09-.57.17-1.07.27-1.67.5,1.71.96,3.29,1.42,4.87.16-.03.31-.07.47-.1-.23-1.04-.46-2.08-.69-3.12.13-.04.27-.08.4-.12.3.7.6,1.4.9,2.11.29.02.58.04.87.05.19,3.81.38,7.47.56,11.14h.31v-7.76c.16.02.33.03.49.05Z"/>
        <path class="cls-2" d="M132.23,117.65c-1.18-.65-1.44-1.61-1.72-2.45-2.06-6.37-4.08-12.76-5.31-19.35-.76-4.07-1.22-8.19-1.72-12.3-.54-4.39-.91-8.8-.73-13.23.07-1.79.32-3.58.51-5.62.16.35.28.48.28.61.16,3.68.3,7.37.46,11.05.17,3.88.63,7.72,1.13,11.57.66,5.05,1.57,10.04,2.92,14.94,1.05,3.8,2.37,7.53,3.51,11.31.31,1.04,1.04,2.02.65,3.46Z"/>
        <path class="cls-2" d="M163.54,122.35c-.32-1.02-.62-2.04-.95-3.05-.18-.55-.54-1.07,0-1.78.53.75,1.02,1.44,1.5,2.12.25-.31.48-.61,1-1.27.32-2.68.7-5.85,1.09-9.13.22.08.5.17.89.31-.29,3.15-.58,6.25-.93,10.06.81,1.58,1.92,3.77,3.04,5.97.32.64.67,1.26.94,1.92.16.41.19.87.28,1.32-.11.27-.22.54-.4.98-.46-.49-.76-.81-1.07-1.13-.23.14-.46.27-.69.41-.31-.13-.6-.24-1.08-.44,1.46,2.79,3.66,5.15,5.75,7.48-1.97-.48-3.13-1.99-4.16-3.53-1.15-1.69-2.09-3.52-3.12-5.29.03-.65-.52-1.06-.64-1.73-.2-1.12-.93-2.15-1.43-3.21Z"/>
        <path class="cls-2" d="M137.31,107.02c-.76-2.71-1.52-5.41-2.29-8.12-1.56-5.41-2.56-10.94-3.38-16.5-.54-3.66-.58-7.36-.45-11.05.03-.83.31-1.66.72-2.45.16,3.25.2,6.51.5,9.74.29,3.19.75,6.38,1.31,9.53.58,3.23,1.26,6.44,2.1,9.61.82,3.1,1.91,6.13,2.88,9.2.97,3.09,2.53,5.98,3.51,9.38-1.45-.28-1.71-1.24-2.04-2.04-.61-1.49-1.11-3.02-1.69-4.52-.21-.55-.52-1.06-.79-1.59-.13-.4-.25-.79-.38-1.19Z"/>
        <path class="cls-2" d="M138.47,146.6c-2.81-.24-5.27-1.47-7.72-2.72-.48-.24-.9-.64-1.4-.79-2.29-.69-3.69-2.36-4.88-4.27-1.54-2.44-3-4.93-5.43-6.65-.71-.5-1.36-1.08-1.86-1.83,2.06.16,3.52,1.33,4.65,2.74,1.46,1.82,2.66,3.86,3.96,5.8.41.61.8,1.23.98,1.52.85.28,1.36.45,1.83.6-1.56-2.58-3.14-5.2-4.73-7.8-1.59-2.61-2.94-5.32-3.87-8.6.51.3.75.35.83.5,2.99,5.55,5.97,11.11,9.08,16.9,2.51,1.84,5.69,2.95,8.61,4.56l-.04.05Z"/>
        <path class="cls-2" d="M233.39,50.68c-.44.38-.94.82-1.76,1.54,1.13-3.54.14-6.38-1.39-9.12.37,1.6.9,3.18,1.08,4.81.19,1.65.04,3.35.04,5.14-1.1-.68-1.5.03-1.93.89.02-4.96-.31-9.77-2.71-14.31.04-.03.19-.15.37-.3-.23-.26-.48-.53-.91-1.02,2.15.38,3.5,1.38,4.49,3.01,1.36,2.23,1.86,4.71,2.33,7.2.11.59.21,1.18.38,2.15Z"/>
        <path class="cls-2" d="M197.47,131.63c.63-1.67,1.19-3.12,1.78-4.7.16.32.24.5.35.71.06-.05.17-.08.19-.15.21-.82.41-1.64.73-2.42.34,2.96-1.46,5.06-2.87,7.32-2.43-.94-4.55-2.4-7.53-5.3-.22.07-.44.14-.7.23-.45-2.24.16-4.26,1.06-6.36.42.15.8.28,1.22.43-.08.94-.29,1.93-.21,2.9.07.87-.75,1.76.1,2.79.4-1.33.75-2.51,1.16-3.86.83,1.69-.32,3.07-.26,4.92,1.03-1.15,1.82-2.03,2.61-2.91.11.07.22.14.33.21-.23.59-.45,1.18-.77,2.02.55-.37.94-.63,1.48-.99-.07,1.35-.98,2.06-1.91,3.08,1.48-.29,1.69-1.55,2.62-2.23.23.54.44,1.05.7,1.66-.33.66-.67,1.36-1.04,2.1.24.13.46.26.98.55Z"/>
        <path class="cls-2" d="M137.31,107.02c.13.4.25.79.38,1.19.39,1.82.76,3.65.22,5.91-.34-.55-.61-.78-.62-1.02-.09-2.6-.88-5.01-1.91-7.35-2.35-5.31-3.75-10.87-4.64-16.59-.65-4.18-1.18-8.35-1.22-12.58-.02-1.94-.22-3.87-.32-5.81-.02-.32.03-.65.23-.97.2,1.4.45,2.79.59,4.19.2,2,.28,4.01.47,6.01.84,8.83,2.26,17.53,6,25.69.22.48.54.9.82,1.35Z"/>
        <path class="cls-2" d="M133.98,66.91c.04.52.12,1.04.11,1.56-.12,4.02.12,8.02.78,11.99.43,2.57.78,5.15,1.19,7.72,1.06,6.59,3.21,12.84,5.76,18.98.69,1.67,1.22,3.4,1.75,5.13.21.67.19,1.41.27,2.07-.23.09-.29.12-.34.12-.06,0-.17-.01-.19-.05-.22-.48-.46-.96-.64-1.45-3.21-8.67-6.33-17.37-7.8-26.54-.96-6.02-1.45-12.09-1.25-18.2.01-.45.08-.89.13-1.33.08,0,.16,0,.24,0Z"/>
        <path class="cls-2" d="M127.63,67.39c0,1.73-.08,3.47.02,5.2.17,2.86.46,5.72.71,8.58.14,1.53.31,3.06.47,4.59.89,8.41,2.54,16.66,4.99,24.75.21.7.45,1.41.57,2.13.08.48-.01.99-.04,1.87-1.41-1.3-1.59-2.75-1.89-4.04-1.01-4.36-2.02-8.73-2.78-13.15-.74-4.28-1.18-8.61-1.77-12.92-.69-4.99-.79-10.02-.76-15.05,0-.66,0-1.32,0-1.97.16,0,.32,0,.48,0Z"/>
        <path class="cls-2" d="M169.92,121.74c-.16-.48-.32-.96-.51-1.54-.13.39-.24.71-.35,1.05-.12-.09-.28-.15-.28-.21.07-2.2.06-4.41.26-6.6.17-1.92.57-3.82.84-5.73.06-.45,0-.93,0-1.7-.34,1.38-.61,2.44-.94,3.78-1.73-1.85-.82-3.69-.67-5.59-.34.16-.6.29-.99.48.33-1.97.64-3.86.96-5.75.68.84.76,1.68.35,4.28.48-.45.81-.76,1.17-1.09.78,2.12.6,4.25.74,6.37.15,2.3-.24,4.59.21,6.92.33,1.7-.18,3.56-.32,5.34-.16,0-.31-.01-.47-.02Z"/>
        <path class="cls-2" d="M152.24,122.36c.13.41.26.82.4,1.23-.26,2.23.52,3.99,2.42,5.23l-.02-.02c.43,1.36.87,2.72,1.3,4.08-1.05-.39-1.07-1.43-1.45-2.25-.29-.61-.2-1.55-1.39-1.57.32,1.92,1.51,3.44,2.21,5.19-1.25-.72-1.98-1.83-2.41-3.15-.41-1.26-.76-2.54-1.14-3.82-.29-1.19-.49-2.41-.89-3.56-.36-1.03-.95-1.99-1.44-2.98-.47-2.69-1.33-5.27-2.73-7.93.57.16.77.22,1.1.32-.43-2.65-.86-5.25-1.28-7.85.16-.03.32-.06.48-.08.83,3.83,1.53,7.68,2.52,11.46.52,1.96,1.53,3.8,2.32,5.69Z"/>
        <path class="cls-2" d="M123.11,152.16c.43.43.86.86,1.29,1.29.8,1.13,1.61,2.26,2.39,3.37,3.5.24,7.1.57,10.49-.55v-.02c-.05.2-.08.39-.12.62-3.12,1.53-6.4,1.24-9.79.89.2.35.46.66.75.71,2.99.46,5.95-.03,8.92-.42-1.81.87-3.69,1.46-5.69,1.49-1.62.03-3.25-.07-4.88-.11-.07.04-.13.09-.19.13-2.34-2.25-4.67-4.49-7.25-6.97,2.01.47,3.22,1.63,4.5,2.66,1.21.98,1.65,2.7,3.22,3.35-1.63-2.99-4.45-4.99-6.58-8.17,1.22.72,2.08,1.23,2.93,1.73Z"/>
        <path class="cls-2" d="M158.69,125.58c-.73-2.36-1.45-4.72-2.19-7.08-.27-.87-.73-1.68-.35-2.69.13-.35-.17-.89-.32-1.33-.51-1.57-1.03-3.14-1.32-4.85.18.27.43.52.54.81.29.75.53,1.51.79,2.27.27.8.36,1.69,1.25,2.17.19.1.28.45.38.69,1.6,3.83,3.19,7.66,4.77,11.49.15.35.2.75.41,1.55-1.18-.91-1.39-2.08-2.3-2.9.15.95.27,1.7.39,2.45-.13.05-.26.1-.38.16-.56-.92-1.12-1.85-1.68-2.77l.02.02Z"/>
        <path class="cls-2" d="M77.54,110.65c.12.79.18,1.59.36,2.37,1.2,5.28,2.48,10.54,3.61,15.83.36,1.69.38,3.45.48,5.19.08,1.46-.39,2.75-1.63,4.04.05-.67.1-1.09.11-1.51.04-1.87.35-3.79.04-5.6-.81-4.6-1.97-9.14-2.87-13.73-.36-1.83-.41-3.71-.54-5.58-.02-.33.27-.69.41-1.04,0,0,.03.02.03.02Z"/>
        <path class="cls-2" d="M115.14,46.96c-.27.53-.54,1.06-.94,1.84.85,1.97,1.78,4.1,2.95,6.81.06,1.08.25,2.83-1.14,4.41-.58-1.73.74-3.13.33-4.78-.46,1.43-.91,2.85-1.37,4.28-1.08-.07-.5-1.07-.88-1.45-.54.39-1.07.77-1.91,1.38.65-1.89,1.17-3.43,1.7-4.97-.08-.03-.17-.06-.25-.09-.57,1.22-1.14,2.44-1.71,3.66-.29-2.02,1.13-3.45,1.44-5.38-.22-.96-.62-2.04-.1-3.43.31.98.55,1.72.79,2.47.06,0,.12,0,.18-.01-.13-1.18-.27-2.37-.42-3.71.36-.38.77-.8,1.17-1.23.06.06.11.13.15.2Z"/>
        <path class="cls-2" d="M220.05,128c.38-.26.77-.53,1.11-.76h3.39c.04-.27.08-.63.13-1-.95.05-1.89.09-3.28.16.69-.71,1.05-1.08,1.35-1.39,1.63-.38,3.22-.75,4.94-1.15.23.44.53,1.03.9,1.74-.48.34-.94.66-1.4.99.13.15.26.29.42.46-.54,1.63-2.19,1.98-3.41,2.85.16.3.3.55.53.96-.91-.22-1.66-.41-2.4-.59.55-.39,1.07-.75,1.58-1.12-.04-.13-.09-.26-.13-.39-1.61.18-3.22.37-5.17.59.64-.6,1.04-.99,1.45-1.38,0,0-.01.01-.01.01Z"/>
        <path class="cls-2" d="M163.49,63.73c.15.43.29.85.44,1.28-.79.16-1.58.31-2.37.47,0,0-.11-.14-.11-.14.08-.18.15-.36.26-.61-3.32-.5-6.3.52-9.34,1.6.43-.35.85-.71,1.32-1.1.25-2.46.65-4.91,2.53-6.85-.25.86-.5,1.72-.84,2.9,1.47-1.55,2.58-3,4.39-3.72-.88,1.02-1.76,1.99-2.46,3.15-.68,1.14-1.3,2.33-1.65,3.62,1.42-1.21,1.53-3.4,3.4-4.27-.65,1.11-1.31,2.23-2.12,3.61,2.39-.36,4.49-.59,6.56.04Z"/>
        <path class="cls-2" d="M220.07,127.99c-.4-.03-.79-.06-1.31-.1-.45.22-1.02.5-1.72.83-.19-.48-.35-.87-.56-1.38-.24.05-.61.12-1.09.21-.75-1.02-1.52-2.08-2.33-3.19.07-.12.2-.35.38-.67-.44-.26-.88-.52-1.4-.84.05-.53.1-1.11.16-1.81.58-.43,1.22-.9,1.89-1.39,1.41.22,1.79,1.43,2.55,2.57-.41.68-.84,1.4-1.3,2.15,1.11.56,2.21,1.11,3.45,1.74-.12.3-.25.62-.34.85.52.33,1.07.68,1.61,1.03h.01Z"/>
        <path class="cls-2" d="M141.73,65c-.25.98-.54,1.91-.89,2.86-.9-1.1-.87-2.37-.73-3.7.16-1.47.28-2.94.44-4.4-.38-.14-.6-.21-.81-.29.76-2.35,1.03-4.69.94-7.07q.67.64,1.21,3.15c.35-.49.64-.91.92-1.3-.15-.33-.26-.59-.42-.94.35.03.57-.09.73.27.15.34.26.69.39,1.04.25-.23.52-.48,1.15-1.05-.77,1.79-1.59,3.56-2.29,5.38-.76,1.97-.6,4-.66,6.07l.02-.02Z"/>
        <path class="cls-2" d="M163.54,122.35c.51,1.07,1.23,2.09,1.43,3.21.12.67.67,1.08.64,1.73-.04.32-.08.64-.16,1.2-.55-.58-.94-.99-1.37-1.44-.09.41-.18.81-.29,1.29-1.56-1.78-3.5-6.81-5.03-13.11.94,1.27,2.01,1.74,2.51,2.92.62,1.46,1.49,2.81,2.25,4.21Z"/>
        <path class="cls-2" d="M224.49,44.41c-1.58-2.29-1.8-3.11-1.75-6.83.58.53,1.13.92,1.53,1.42,2.12,2.65,3.81,5.48,3.99,9.02.13,2.67.48,5.32.71,7.98.03.36-.1.73-.46,1.13-.13-.4-.39-.81-.38-1.21.05-2.75-1.14-5.41-.67-8.78-.39-2.03-1.36-4.4-3.8-6.38.74,1.79,2.25,2.74,2.75,4.32-.97.39-1.32-.42-1.9-.64l-.03-.03Z"/>
        <path class="cls-2" d="M197.45,73.45c-.56,2.03-1.12,4.06-1.68,6.09.08.02.16.04.23.07.62-1.43,1.24-2.86,1.89-4.36.54-.19,1.07-.37,1.89-.66-.94,3.03-1.21,5.95-2.9,8.83-.22-.79-.32-1.18-.42-1.54-.2.08-.36.15-.59.24-.05-.54-.09-1-.13-1.45-.21-.06-.39-.1-.57-.15,0-1.39-.92-2.65-.42-4.13.46-1.38.72-2.82,1.14-4.54.83,1.44-.33,2.52.11,3.74.4-.82.77-1.57,1.14-2.31.1.06.21.12.31.17Z"/>
        <path class="cls-2" d="M163.52,103.76c-.26.55-.44,1.06-.17,1.71.28.66.37,1.41.55,2.14-.62,2.54-1.26,5.1-1.92,7.79-.5-.49-.8-.8-1.34-1.32-.11-.98-.26-2.29-.38-3.6-.03-.32.06-.66.15-.98.6-2.1,1.22-4.2,1.84-6.32.51.24.89.42,1.27.59l-.02-.02Z"/>
        <path class="cls-2" d="M124.53,113.25c-.16-.26-.36-.51-.46-.79-2.02-5.47-4.02-10.95-6.02-16.43-1.11-3.04-1.53-6.22-1.76-9.43-.03-.37.07-.75.2-1.13.77,6.69,3.37,12.79,5.82,18.94.87,2.18,1.58,4.41,2.3,6.65.21.66.18,1.41.26,2.12-.11.03-.21.05-.32.08Z"/>
        <path class="cls-2" d="M190.95,76.44c-1.43-.98-1.99-2.45-2.41-3.97-.43-1.55-.79-3.11-1.21-4.66-.15-.58-.37-1.14-.7-1.69.26,2.35.53,4.7.79,7.05-1.41-4.11-1.82-8.47-4.3-12.42,2.94,1.48,4.45,3.71,5.01,5.75.46,1.68.79,3.39,1.25,5.06.37,1.35.83,2.67,1.25,4,.09.29.21.57.32.86Z"/>
        <path class="cls-2" d="M160.7,95.69c-.08,3.33-.92,6.45-2.58,9.55.08.25.2.67.36,1.17.66-1.81,1.28-3.5,1.9-5.19.07,0,.14,0,.21,0,0,.39.05.78-.01,1.16-.06.39-.21.78-.34,1.16-.8,2.33-1.82,4.61-1.64,7.21-.87-1.59-.81-3.36-1.26-5.01-.47-1.7-1.05-3.37-1.3-5.18.54,1.11,1.07,2.21,1.71,3.52.21-.48.36-.83.52-1.19-.31-.09-.48-.14-.81-.24.59-2.28,1.19-4.57,1.78-6.86.14.02.28.05.42.07-.19,1.16-.38,2.32-.57,3.47.07.02.14.04.21.06.47-1.23.94-2.46,1.42-3.69h-.01Z"/>
        <path class="cls-2" d="M173.63,113.46c.14.35.39.69.41,1.04.06,1,.02,2.01.24,3.02.08-.58.16-1.15.23-1.73.62,1.64.23,3.35.45,5.23.52-1.47-.21-3.01,1.13-4.33-.19,2.8-.37,5.36-.57,8.25-1.09-.89-.5-1.85-.8-2.66-.26.69-.5,1.34-.79,2.14.28,1.08.62,2.36.95,3.64-.08.06-.17.12-.25.17-.19-.19-.46-.34-.54-.56-1.04-2.86-1.65-5.75-1.04-8.83.35-1.76.4-3.58.58-5.37,0,0,0,0,0,0Z"/>
        <path class="cls-2" d="M75.95,127.23c.47,2.56.94,5.12,1.41,7.68.59,3.15,1.24,6.29,1.75,9.46.19,1.18.05,2.41.01,3.62-.01.28-.25.56-.7.81-.11-1.01-.15-2.03-.33-3.03-.44-2.5-.99-4.98-1.42-7.48-.63-3.61-1.48-7.2-1.23-10.99.08-.03.26-.09.44-.15l.08.07Z"/>
        <path class="cls-2" d="M127.56,132.87c-.69-1.13-1.38-2.27-2.07-3.4-1.01-1.65-2.1-3.25-2.98-4.97-.39-.77-.62-1.65-.75-2.6-.22-1.61-1.02-3.16-1.63-4.71-.98-2.49-2-4.96-3-7.45-.04-.1.03-.25.04-.38,1.51,2,6.56,12.52,6.55,14.58,1.35,2.81,2.49,5.15,3.59,7.51.19.41.21.9.31,1.35l-.07.06Z"/>
        <path class="cls-2" d="M107.89,149.13c.38-.82.77-1.63,1.14-2.45.95-2.06,2.03-4.07,2.8-6.2,1.23-3.37,1.01-6.83.1-10.26-.15-.58-.32-1.15-.48-1.73-.01-.05.04-.12.07-.18,4.1,5.42,2.12,15.92-3.26,21-.12-.06-.25-.12-.37-.18Z"/>
        <path class="cls-2" d="M148.59,72.27c-.77-.24-1.64.26-2.49-.44,0-1.77-.13-3.65.04-5.51.11-1.23.55-2.47,1.05-3.61.23-.53.95-.86,1.59-1.2-.33,1.67-1.05,3.23-.76,5.22.36-.5.57-.79.91-1.26-.14,1.69-.13,3.21-.43,4.67-.16.77,0,1.42.08,2.13h0Z"/>
        <path class="cls-2" d="M137.51,46.92c-2.15-1.43-4.3-2.86-6.45-4.3,3.33.55,6.02,2.24,8.44,4.51v1.22c-.18-.03-.36-.05-.54-.08-3.08-.45-3.14-.38-4.99-1.89-1.44-1.17-3.09-1.83-4.8-2.41-1.01-.34-2.03-.66-3.01-2,1.41.65,2.42,1.12,3.46,1.6.46-.12.9-.23,1.29-.33,2.14,1.37,4.23,2.69,6.31,4.02l.31-.36Z"/>
        <path class="cls-2" d="M175.24,112.66v-5.78c.07,0,.14,0,.21,0,.38,2.08.76,4.16,1.21,6.61.29-1.4-.03-2.53.47-3.85.81,1,.45,1.92.65,2.7.23.9.51,1.81.62,2.73.1.8.56,1.69-.29,2.47.48,2.3,1.17,4.62.5,7.38-.3-.49-.54-.72-.57-.96-.17-1.8-.3-3.59-.44-5.39-.11-1.45-.23-2.9-.64-4.35-.05.6-.1,1.2-.15,1.81-.11.02-.22.05-.33.07-.42-1.15-.85-2.3-1.27-3.44h.01Z"/>
        <path class="cls-2" d="M163.54,103.78c-.52-1.89-.66-3.8-.07-5.79.17.73.47,1.46.48,2.19.02,1.21.38,2.23,1.14,3.03.8,5.07.29,9.97-.78,14.83-.73-.92-.2-1.83-.06-2.73.15-.99.3-1.98.44-2.97.15-.98.29-1.95.13-3.02-.64,2.13-1.28,4.27-1.93,6.4-.13-.04-.26-.07-.39-.11.04-1.26.74-2.37.99-3.59.27-1.3.63-2.6.77-3.92.13-1.32.03-2.67.03-4.09-.28-.09-.52-.17-.76-.25l.02.02Z"/>
        <path class="cls-2" d="M155.1,135.69c-.31-.29-.63-.59-.94-.88-.35-.4-.67-.83-1.07-1.18-1.1-.98-1.65-2.25-2.07-3.61-.27-.88-.54-1.79-.97-2.6-1.25-2.38-2.37-4.8-2.77-7.41-.38-.3-.95-.52-1.01-.82-.38-2.2-.82-4.41-.32-7.07.27,2.37.49,4.33.71,6.32.22-.13.39-.23.5-.29,1.41,3.44,2.83,6.9,4.26,10.34.07.16.3.25.37.3.08.54,0,1.08.24,1.43.97,1.52,2.01,2.99,3.06,4.46.26.37.45.67.02,1.01Z"/>
        <path class="cls-2" d="M114.99,46.76c.27-.66.54-1.32.99-2.43-2.06,1.69-3.84,3.03-6.65,2.94,1.46-1.07,2.8-1.53,4.02-2.21.92-.51,1.99-.83,2.54-1.86h-.01c.19-.05.38-.11.63-.2.17.57.33,1.12.53,1.79-.42.98-1.23,1.95-1.06,3.34.74-1.09.94-2.45,2.43-3.42-.32.73-.49,1.1-.76,1.73.52-.28.89-.47,1.33-.71,0,.21.07.44-.01.55-.74,1-1.51,1.98-2.51,3.28.84-.12,1.24-.18,2-.28-.96.91-1.69,1.38-2.82,1.09-.16-1.12-.32-2.27-.48-3.41-.04-.08-.09-.14-.15-.2Z"/>
        <path class="cls-2" d="M175.23,112.65v2.13l-.28.05c-.39-1.15-.78-2.29-1.22-3.58-.04.82-.07,1.52-.11,2.22h0c-.34.7-.67,1.39-1.04,2.14-.09,2.11-.16,4.32-.32,6.52-.02.31-.47.6-.98,1.19.29-3.34.54-6.28.81-9.42.15-.22.41-.59.74-1.06v-4.73c.08-.01.17-.03.25-.04.11.33.22.65.33.98.05,0,.1,0,.15,0-.05-.86-.11-1.71-.16-2.57.06-.03.12-.07.18-.1.16.36.37.7.46,1.08.42,1.73.81,3.47,1.2,5.21h-.01Z"/>
        <path class="cls-2" d="M132.77,132.91c-2.13-2.04-3.11-4.66-3.59-7.47-.55-3.19-1.39-6.27-2.83-9.18-.34-.69-.53-1.45-.79-2.18.13-.07.25-.13.38-.2.49.68,1.03,1.32,1.45,2.04,1.24,2.11,1.92,4.42,2.29,6.82.42,2.71.74,5.45,2.09,7.92.39.7.77,1.4,1.15,2.1l-.15.14Z"/>
        <path class="cls-2" d="M160.71,95.7c-1.28-3.16-2.05-6.46-2.7-9.8-.13-.69-.27-1.31.61-1.92.97,1.82.94,3.84,1.53,5.89.09-.92.15-1.66.26-2.86,1.43,2.99.07,5.84,1.25,8.49-.48.09-.72.14-.97.18h.01Z"/>
        <path class="cls-2" d="M161.98,68.21c-.35.14-.76.21-1.05.43-.81.64-1.71.87-2.71.84h-3.93c-.1-.15-.22-.35-.44-.69-.34-.04-.85-.1-1.37-.17.9-2.34,1.8-2.74,5.37-2.26-.84.27-1.4.45-1.96.64-.57.19-1.13.39-2.15.74,2.37.03,4.16-.2,5.72-1.49.54-.45,1.32-.61,1.98-.91l.11.14c-.97.68-1.88,1.47-2.93,2-.98.49-2.11.69-3.37,1.08,3.37.09,3.87.33,7-1.3.29-.15.63-.17.95-.26-.41.41-.82.81-1.24,1.22Z"/>
        <path class="cls-2" d="M156.3,81.12v6.6c.11,0,.22,0,.33,0v-4.57c.08,0,.17,0,.25,0,.47,2.87.94,5.74,1.41,8.61-.09.05-.17.1-.26.16-.28-.35-.56-.7-.87-1.09-.04.45-.07.93-.12,1.51-.26-.11-.48-.13-.56-.25-.97-1.47-.88-3.21-1.04-4.84-.19-2.05-.12-4.13.85-6.12Z"/>
        <path class="cls-2" d="M108.21,50.07c.2-.17.39-.35.62-.55.08.06.23.17.38.28.32-.43.65-.87,1.04-1.39.92,2.73.69,5.03-.75,8.07-1.95-.95-.17-2.49-.66-3.85-.51.67-.94,1.25-1.38,1.83-.08-.03-.17-.07-.25-.1.33-1.43.66-2.87.99-4.3h0Z"/>
        <path class="cls-2" d="M127.92,134.8c.17.17.33.34.5.51.58.88,1.07,1.85,1.76,2.64,1.78,2.02,3.7,3.9,6.02,5.3.91.54,1.88.97,2.78,1.57-1.99.12-3.67-.77-5.17-1.91-4.13-3.16-6.65-6.5-6.92-9.03.37.34.69.64,1.02.93Z"/>
        <path class="cls-2" d="M170.69,86.24c.46-.71.92-1.41,1.47-2.26.15,1.95-1.74,5.31-3.91,7.16-.04-.31-.07-.6-.11-.97-.69.64-1.31,1.22-1.93,1.8.98-2.96,3.15-5.18,4.73-7.84-.16.67-.32,1.34-.48,2.01.08.03.16.07.24.1Z"/>
        <path class="cls-2" d="M170.4,128.81c-.09-.44-.12-.91-.28-1.32-.27-.66-.62-1.28-.94-1.92-.39-1.25-.77-2.49-1.3-4.17.59.55.87.81,1.14,1.06.14-.13.28-.25.5-.45,1.44,2.17,2.42,4.47,2.88,7.15-.17.2-.41.49-.66.8.11.42.24.86.36,1.3-.3-.31-.64-.6-.88-.95-.32-.47-.55-1-.82-1.51Z"/>
        <path class="cls-2" d="M224.52,44.43c.46,1.39,1.18,2.72.75,4.35.37.16.68.3,1.06.47.71,2.97,1.13,5.97.41,9.03-.57-2.47-.45-5.06-1.14-7.52-.27,2.67-.11,5.32-.43,7.96-.8-3.61.28-7.34-.68-10.93-.09-.78-.23-1.56-.26-2.34-.01-.34.17-.7.27-1.05,0,0,.03.03.03.03Z"/>
        <path class="cls-2" d="M180.11,125.18c-.16-.35-.43-.68-.46-1.04-.28-4.18-.53-8.36-.78-12.45.46.74,1.21,5.37,1.08,6.45,1.56,2.64,3.2,5.02,2.31,8.14-.1.06-.19.12-.29.19-.42-1.81-.84-3.62-1.3-5.61-.21,1.57-.39,2.95-.57,4.32Z"/>
        <path class="cls-2" d="M88.81,47.72c1.94.54,2.84,1.33,4.16,3.55.19-.5.34-.9.5-1.32.08.12.2.21.19.3-.14,1.99-.29,3.98-.47,5.97-.01.16-.22.31-.59.8.21-1.93.38-3.49.58-5.23-.5.11-.92.2-1.45.32-2.29-1.67-5.05-2.05-8.29-2.09,1.34-.42,2.24-.7,3.53-1.1,1.34.52,3.06,1.19,4.78,1.86.06-.08.11-.15.17-.23-.95-.87-1.91-1.75-3.09-2.83Z"/>
        <path class="cls-2" d="M166.3,93.44c-.1,1.14-.21,2.29-.31,3.44.38.35.71.66,1.14,1.06.11,1.98.13,4.02-.01,6.24-1.11-.95-1.65-2.27-1.95-5.6-.16-1.72-.52-3.58.54-5.19.2.02.4.03.59.05Z"/>
        <path class="cls-2" d="M148.92,138.18c-2.74-.82-5.51-1.56-8.21-2.48-1.99-.68-3.57-2.08-5.09-3.48-.37-.34-.55-.88-.81-1.33l.13-.11c.58.27,1.28.41,1.72.83,3.09,2.89,6.84,4.48,10.81,5.69.56.17,1.07.49,1.6.74-.05.05-.09.11-.14.16Z"/>
        <path class="cls-2" d="M184.13,69.87v3.36c-.83-2.87-1.63-5.68-3.01-8.48.09,2.51.18,4.84.27,7.17-.14,0-.27.01-.41.02-.08-1.61-.01-3.24-.3-4.81-.28-1.55-.91-3.03-1.44-4.69.73.48,1.34.88,2.1,1.38.74,1.37,1.55,2.9,2.37,4.42.14.54.28,1.09.42,1.63Z"/>
        <path class="cls-2" d="M117.78,54.92c1.55-1.07,1.93-2.64,2.68-3.95.55-.96.52-.98,1.76-1.53.45,1.58,1.16,3.09.83,5.16-.51-1.6-.9-2.86-1.27-4.03-.72,1.36-1.5,2.82-2.66,4.99-.12,1.15.56,3.37-1.47,4.98-.1-1.95,1.23-3.71.12-5.62Z"/>
        <path class="cls-2" d="M184.95,107c-.1.43-.19.87-.35,1.6.6-.67,1.01-1.12,1.43-1.58l.26.12c-.13.36-.26.72-.38,1.04.45.35.93.72,1.5,1.16-1.18,1.04-2.29,2.03-3.47,3.07-.54-.76-.08-1.57-.2-2.49-.51.62-1.03,1.23-1.7,2.04-.16-.92.19-1.51.44-2.12.62-.85,1.24-1.69,2.02-2.76-.06.01.19-.03.44-.08Z"/>
        <path class="cls-2" d="M218.48,57.37c-.11.79-.27,1.57-.33,2.36-.06.71-.01,1.42-.01,2.26.61-1.23,1.15-2.34,1.7-3.45.18,1.79-1.37,6.59-2.34,7.9-.29-.43-.55-.84-.96-1.46.47-2.23.97-4.63,1.49-7.02.05-.23.26-.43.39-.65,0,0,.06.05.06.05Z"/>
        <path class="cls-2" d="M154.23,74.36c1.4.64,1.27,1.89,1.85,2.94.24-1.37.46-2.6.68-3.83,1.18,2.4,1.23,2.41,1.19,4.28-.04,1.48.37,3.06-.87,4.79v-4.78c-.79.88-1.47,1.63-2.49,2.76.37-1.25.61-2.08.9-3.07-.35-.86-.74-1.83-1.25-3.09Z"/>
        <path class="cls-2" d="M169.95,94.12c1.12-1.85,2.23-3.69,3.35-5.54.11.04.21.09.32.13-.09.48-.18.96-.3,1.62.48-.43.83-.75,1.49-1.33-.54,3.03-2.2,4.85-4.16,6.55.15-.51.29-1.02.46-1.63-.34.16-.61.28-.88.41-.09-.07-.19-.14-.28-.21Z"/>
        <path class="cls-2" d="M134.8,130.88c-1.39-1.57-2.42-3.37-3.02-5.36-.89-2.98-1.67-6-2.54-9.16.97.42,1.26,1.17,1.52,1.89.35.94.66,1.9.83,2.89.61,3.39,1.93,6.53,3.33,9.64l-.13.11Z"/>
        <path class="cls-2" d="M180.39,132.16c-2.47-1.42-3.8-3.65-4.64-6.42h1.4c1.52,1.76,3.08,3.58,4.65,5.4-.06.07-.13.14-.19.22-.85-.6-1.7-1.2-2.91-2.05.81,1.12,1.35,1.87,1.89,2.62-.07.08-.14.16-.2.24Z"/>
        <path class="cls-2" d="M113.49,109.38c2.67,4.72,4.66,9.76,5.09,15.3l-5.09-15.3Z"/>
        <path class="cls-2" d="M151.01,59.77c-.19-.05-.38-.1-.77-.2,0-3.04.6-5.97,2-8.79-.12,1.11-.24,2.22-.4,3.72.69-1.24.96-2.3,1.81-3-.87,2.43-1.81,4.81-2.18,7.37-.15.3-.3.61-.46.91Z"/>
        <path class="cls-2" d="M188.59,130.03l-.87-.86c-.06-.32-.11-.64-.18-1.04.48.03.91.07,1.01.07,2.36,1.54,4.47,2.91,6.65,4.33-.16.21-.34.45-.52.69l-.1.07c-1.17-.57-2.36-1.1-3.51-1.71-.85-.46-1.65-1.02-2.47-1.54Z"/>
        <path class="cls-2" d="M143.14,131.07c-3.2-1.34-6.2-6.56-6.34-11.33,1.03,2.21,1.82,4.2,2.86,6.05,1.03,1.83,2.31,3.53,3.48,5.28Z"/>
        <path class="cls-2" d="M116.33,72.39c.19-2.9.5-5.82,1.77-8.47.77-1.61,1.02-3.29,1.37-4.97.23-1.1.36-2.22.57-3.54.27.28.57.45.62.67.27,1.28.24,2.6-.41,3.72-1,1.73-1.25,3.72-2.06,5.52-.79,1.76-1.09,3.7-1.1,5.66,0,.49-.17.98-.26,1.47-.17-.02-.34-.04-.51-.05Z"/>
        <path class="cls-2" d="M151.82,60.97c1.17-1.7,2.4-3.37,3.5-5.11.81-1.27,1.45-2.65,2.22-4.09.19,1.03-.18,1.95-.54,2.78-.47,1.1-1.15,2.11-1.76,3.16-.84,1.44-1.68,2.88-2.52,4.32-.22.38-.43.77-.89,1.1v-2.16h0Z"/>
        <path class="cls-2" d="M138.63,147.85c-4.36.41-8.24-.76-11.97-3.36.52-.1.98-.16,1.49.01,1.01.33,1.95.85,2.94,1.22,2.46.91,4.99,1.53,7.54,2.14Z"/>
        <path class="cls-2" d="M205.85,117.86c2-2.72,5.47-3.48,8.36-2.14,2,.93,4.01,1.82,6.04,2.67.6.25,1.27.32,2.27.56-1.22.23-2.08.29-2.95-.05-1.24-.49-2.5-.94-3.73-1.46-1.53-.65-3.04-1.37-4.52-2.04-1.09.34-2.07.55-2.97.95-.88.4-1.67,1-2.5,1.51Z"/>
        <path class="cls-2" d="M223.07,61.92c.09-4.54.18-8.72.27-12.9,1.09,4.2,1.81,8.4-.27,12.9Z"/>
        <path class="cls-2" d="M176.31,98.99c-.56.07-1.13.13-1.81.21,1.59-2.36,3.12-4.62,4.87-7.21-.33,1.93-.8,3.81-1.27,5.71-.59.43-1.19.86-1.78,1.29Z"/>
        <path class="cls-2" d="M149.87,76.35c.2-.69.4-1.39.72-2.51-.42.49-.89,1.26-1.55,1.41.61-1.6,1.28-3.19,1.82-4.81.51-1.52.72-3.15.12-4.67,1.58,2.49,1.08,7.76-1.1,10.58Z"/>
        <path class="cls-2" d="M126.65,164.95c3.43-.51,6.88-.8,10.04-2.55-.36,1.1-.43,1.32-2.19,1.92-2.54.87-5.12,1.81-7.84.62Z"/>
        <path class="cls-2" d="M203.53,67.09v-12.03c1.11,2.62,1.18,8.62,0,12.03Z"/>
        <path class="cls-2" d="M126.8,45.23c-.2-.23-.41-.47-.75-.86,1.66-.26,3.14.42,4.62,1.08,1.52.67,3.06,1.2,4.21,2.48-.07.12-.14.23-.21.35-2.61-1.07-5.2-2.19-7.89-3.06l.02.02Z"/>
        <path class="cls-2" d="M148.61,126.31c-1.81-1.16-3.57-5.01-4.27-9.34.77.74,2.85,5.27,4.27,9.34Z"/>
        <path class="cls-2" d="M188.21,126.1c-1.27-2.11-1.19-3.73.3-7.84.18.88.33,1.62.56,2.76-.25,1.33-.27,3.15-.86,5.08Z"/>
        <path class="cls-2" d="M102.74,36.02c1.18-.31,2.36-.61,3.54-.92-1.72-.31-3.4-.54-4.74-1.86,2.37.42,4.75.85,7.06,1.26-1.29,1.07-3.96,1.95-5.86,1.52Z"/>
        <path class="cls-2" d="M167.88,77.14c-3.41-.18-6.47-1.19-8.96-3.55.04-.07.06-.13.11-.18.04-.05.13-.12.16-.1,2.9,1.27,5.8,2.55,8.69,3.83Z"/>
        <path class="cls-2" d="M143.42,65.1c.83-2.79,1-5.77,2.22-8.73.86,1.94-.06,5.48-2.22,8.73Z"/>
        <path class="cls-2" d="M141.65,132.52c-2.17-1.12-3.55-3.04-4.8-5.01-.78-1.23-1.27-2.65-1.81-4.02-.2-.5-.15-1.09.06-1.68.37.92.73,1.85,1.1,2.77,1.23,3.05,3.23,5.54,5.58,7.78-.05.05-.1.11-.14.16Z"/>
        <path class="cls-2" d="M132.62,63c.97-1.54,1.69-2.69,2.46-3.91.15.31.26.54.39.81,1.4-1.91,1.91-4.07,1.98-6.39.64,2.24.49,4.35-.94,6.26-.12.16-.2.37-.35.49-1.04.82-2.09,1.63-3.53,2.74Z"/>
        <path class="cls-2" d="M94.5,58.51c-.3.43-.59.85-.89,1.28-.05-.29-.2-.6-.15-.86.64-2.99,1.3-5.96,2.04-9.3.5,2.54-.03,4.65-.5,6.75-.16.71-.34,1.42-.51,2.13Z"/>
        <path class="cls-2" d="M156.55,110.11c-.76-3.23-1.48-6.28-2.21-9.33,1.92,2.78,3.34,5.68,2.21,9.33Z"/>
        <path class="cls-2" d="M182.9,118.3c-.06.36-.13.72-.21,1.18-2.15-2.27-2.76-4.8-1.89-7.7.15,1.45.24,2.84.87,4.17v-2.55c.07,0,.14,0,.2-.01l1.04,4.92v-.02Z"/>
        <path class="cls-2" d="M184.13,69.87c-.14-.54-.28-1.09-.42-1.63-.38-1.82-.77-3.64-1.12-5.47-.07-.37-.01-.76.13-1.16,1.4,3.61,2.38,7.31,2.41,11.21-.33-.98-.67-1.97-1-2.95Z"/>
        <path class="cls-2" d="M149.84,120.75c.49.99,1.08,1.94,1.44,2.98.4,1.15.6,2.37.89,3.56-2.25-2.31-2.88-5.28-3.43-8.3.37.58.73,1.17,1.1,1.75Z"/>
        <path class="cls-2" d="M143.94,72.12c.46-2.94.87-5.89,1.42-8.81.19-1.01.59-2.04,1.73-2.59-.1.23-.16.48-.29.69-1.07,1.71-1.38,3.6-1.37,5.57,0,1.82-.35,3.55-1.06,5.21-.14-.02-.28-.04-.43-.05Z"/>
        <path class="cls-2" d="M121.8,59.99c-.25.51-.5,1.03-.74,1.54-.11-.02-.22-.04-.33-.06.17-1.65.33-3.31.5-5.02.5.66.97,1.3,1.49,1.99.35,1.25.88,2.59-.26,4.11-.14-.98-.25-1.73-.37-2.49-.1-.03-.2-.05-.3-.08Z"/>
        <path class="cls-2" d="M126.1,162.95c-2.04-2.28-4.07-4.56-6.1-6.85-.05-.05.04-.23.09-.45,2.94,1.69,4.89,4.15,6.01,7.3Z"/>
        <path class="cls-2" d="M145.28,128.07c-2.2-2.48-3.35-5.18-3.85-9.01.83.69,1.07,1.7,1.43,2.68.78,2.09,1.72,4.13,2.58,6.19-.06.05-.11.1-.17.15Z"/>
        <path class="cls-2" d="M165.14,133.64c.35.64.65,1.31,1.06,1.91.36.53.83.99,1.15,1.57-1.85-.66-2.78-2.32-3.86-3.75-.77-1.02-1.51-2.15-1.53-3.94,1.22,1.61,2.21,2.92,3.2,4.23l-.02-.02Z"/>
        <path class="cls-2" d="M208.48,133.22h-5.74c.33-.61.57-1.04.83-1.53h5.62c-1.34.56-2.77.18-4.28.5,1.12.46,2.36-.2,3.57,1.03Z"/>
        <path class="cls-2" d="M152.9,97.2c.14-2.44-.1-4.91.75-7.51.82,2.43.86,4.65.21,6.88-.1.33-.47.58-.72.86-.07-.08-.15-.16-.24-.23Z"/>
        <path class="cls-2" d="M147.1,55.95c-.3-2.59-.6-5.12-.92-7.87,1.88,1.9,2.3,6.11.92,7.87Z"/>
        <path class="cls-2" d="M72.92,47.11c-1.75,3.07-4.18,5.7-5.24,9.14.13-3.99,2.83-6.5,5.24-9.14Z"/>
        <path class="cls-2" d="M220.51,38c-.06,1.59-.12,3.18-.19,4.77-.12,1.02.55,2.01-.04,3.08-.15-.08-.34-.13-.36-.21-.56-2.26-1.17-4.54-.25-6.84.14-.34.49-.58.74-.87,0,0,.09.08.09.08Z"/>
        <path class="cls-2" d="M152.62,120.72c-1.43-4.52-2.38-8.86-2.22-10.39,1.33,3.13,2,6.34,2.61,9.55.05.25-.24.56-.37.85h-.01Z"/>
        <path class="cls-2" d="M195.91,43.71c.97-2.64,1.94-5.27,2.91-7.91.34,3.12-.74,5.71-2.52,8.05-.13-.05-.26-.1-.39-.14Z"/>
        <path class="cls-2" d="M175.63,86.09c1.27-.79,2.36-1.4,3.38-2.12,1.02-.72,1.65-1.74,1.81-3,.08-.62.19-1.18.94-1.33.63,2.76-2.39,5.99-6.13,6.46Z"/>
        <path class="cls-2" d="M151.04,48.05c-.33,2.9-.65,5.8-1.04,9.2-.36-.7-.61-.98-.63-1.27-.14-1.95-.05-3.87.66-5.73.25-.67.32-1.41.48-2.11.18-.03.35-.05.53-.08Z"/>
        <path class="cls-2" d="M227.84,122.61c-2.35.93-3.82,1.05-5.21.5.29-.36.56-.69.89-1.09.41-.04.88-.06,1.33-.15.45-.09.89-.25,1.51-.42.4.31.84.66,1.48,1.16Z"/>
        <path class="cls-2" d="M178.07,98.51c.84-.74,1.68-1.49,2.56-2.27-.92,2.57-2.96,5.39-6.26,6.27.57-.48.9-.73,1.19-1.02.78-.78,1.87-1.31,2.09-2.56.14-.14.28-.28.43-.42Z"/>
        <path class="cls-2" d="M152.21,99.45c1.25,2.68,2.4,5.39,1.87,8.48-1.15-2.71-1.42-5.61-1.87-8.48Z"/>
        <path class="cls-2" d="M124.98,166.97c-2.01-2.15-3.73-4.5-4.89-7.22,2.29,1.96,3.74,4.49,4.89,7.22Z"/>
        <path class="cls-2" d="M117.16,62.51c-.61,2.1-1.11,3.85-1.62,5.6-.49,1.67-.16,3.52-1.08,5.5-.41-3.25.85-8.4,2.7-11.1Z"/>
        <path class="cls-2" d="M203.01,85.35c-.11,3.8-.66,5.15-2.15,5.75-.45,1.24-.9,2.46-1.34,3.69-.14-.05-.28-.1-.43-.15.56-1.72,1.13-3.44,1.72-5.25.19.3.34.54.63.99.56-1.79,1.07-3.41,1.57-5.03Z"/>
        <path class="cls-2" d="M88.67,154.97c0,3.72,1.13,7.34.87,11.05-1.16-3.62-1.36-7.32-.87-11.05Z"/>
        <path class="cls-2" d="M155.28,49.7c1.01-1.87,2.19-2.91,3.97-3.76.09.29.2.62.25.79.64-.09,1-.14,1.36-.19.04.1.08.2.12.3-1.77.89-3.54,1.78-5.7,2.86Z"/>
        <path class="cls-2" d="M151.46,106.26c-.08-.1-.16-.19-.24-.29-.08.09-.17.18-.25.27-.21-.47-.42-.94-.53-1.2,1.1-2.19.11-4.23.19-6.33,1.02.66.95,1.7,1.06,2.51.23,1.67.67,3.41-.23,5.05Z"/>
        <path class="cls-2" d="M162.78,96.24c-1.29-2.72-.65-5.53-.08-8.34.2,2.75.4,5.5.61,8.25-.17.03-.35.06-.52.1Z"/>
        <path class="cls-2" d="M180.01,68.76c-1.52-2.71-2.45-5.81-5.53-7.39,1.69-.21,2.54.97,3.39,2,1.28,1.55,2.12,3.33,2.14,5.39Z"/>
        <path class="cls-2" d="M138.82,52.77c1.38,4.17,1.02,6.8-1.03,8.8.35-1.52.82-2.97.99-4.45.17-1.43.04-2.9.04-4.35Z"/>
        <path class="cls-2" d="M197.42,50.23c0-.59-.05-1.18.01-1.77.06-.58.24-1.14.21-1.77-.48.84-.96,1.67-1.62,2.82.01-2.2.63-3.19,2.06-3.74.1-.35.2-.72.3-1.08.44,1.93-.01,3.74-.5,5.53-.15,0-.31,0-.46,0Z"/>
        <path class="cls-2" d="M174.66,103.93c2.92-1.38,4.45-4.36,7.11-6.3-1.03,2.64-4.01,5.34-7.11,6.3Z"/>
        <path class="cls-2" d="M203.81,130.61c3.64-.82,4.99-.82,6.53.05-2.18.44-4.16,1.13-6.53-.05Z"/>
        <path class="cls-2" d="M110.03,57.43c.66-1.59,1.33-2.75,1.61-3.99.29-1.27.19-2.62.28-4.12,1.3,2.85.62,6.1-1.88,8.11Z"/>
        <path class="cls-2" d="M202.67,119.24c-.61.31-1.04.53-1.48.75-.14-2.21.22-2.95,2.05-4.09.79,1.3-.5,2.2-.57,3.34Z"/>
        <path class="cls-2" d="M159.02,75.77c1.08,2.12,1.73,4.24.55,6.65-.89-1.08-.44-2.24-.53-3.28-.09-1.12-.02-2.24-.02-3.37Z"/>
        <path class="cls-2" d="M148.59,72.28c1.3-2.15,1.18-4.59,1.26-7.44,1.17,3.35.63,5.99-1.15,8.49l-.1-1.06h0Z"/>
        <path class="cls-2" d="M112.3,73.15c-.16-.16-.31-.32-.47-.48.01-3.25.42-5.6,1.58-8.2-.11,1.07-.23,2.14-.33,3.22-.14,1.46-.24,2.93-.4,4.38-.04.37-.25.72-.38,1.08Z"/>
        <path class="cls-2" d="M195.62,35.43c-.46,4-1.05,5.27-2.95,6.94.61-2.65,2.01-4.72,2.95-6.94Z"/>
        <path class="cls-2" d="M229.86,118.85c-.24-.36-.47-.72-.74-1.12-.13.44-.23.8-.32,1.09-.43-1.15-.87-2.29-1.32-3.48.36-.06.79-.14,1.24-.22,1.27.94,1.47,2.25,1.14,3.73Z"/>
        <path class="cls-2" d="M151.04,48.05c-.18.03-.35.05-.53.08-.35.3-.69.6-.92.8-.37,1.07.2,2.18-.92,3.22v-4.22c.17.08.33.15.54.26,1.21-.51,1.71-2.41,3.82-2.07-1.03.55-1.99.82-2,1.94Z"/>
        <path class="cls-2" d="M118.46,161.29c1.99,1.78,2.79,4.26,3.98,6.51-1.94-1.81-3.26-3.98-3.98-6.51Z"/>
        <path class="cls-2" d="M203.23,121.02c-.28-2.94,1.34-4.79,3.61-6.24-.14.83-.94,1.22-1.35,1.87-.42.67-.8,1.38-1.17,2.09-.39.75-.73,1.52-1.09,2.28Z"/>
        <path class="cls-2" d="M171.02,58.12c2.28-.45,4.45.17,5.98,1.55-.58-.2-1.16-.39-1.81-.61-.06.18-.13.39-.26.77-1.31-.57-2.61-1.14-3.91-1.71Z"/>
        <path class="cls-2" d="M216.79,58.51c-.68,2.47.16,5.14-1.11,7.77-1.04-1.5-.09-2.82-.04-4.1.04-1.28.49-2.55.75-3.82.13.05.27.1.4.15Z"/>
        <path class="cls-2" d="M169.58,91.75c1.24-2.15,2.47-4.29,3.71-6.44-.39,2.64-1.31,4.98-3.71,6.44Z"/>
        <path class="cls-2" d="M203.33,127.48c-.54-1.15.03-1.77.77-2.29.83-.59,1.69-1.13,2.68-1.79-.46,2.07-1.76,3.19-3.45,4.08Z"/>
        <path class="cls-2" d="M99.37,168.07c-.18-2.01-.3-3.64-.49-5.25-.19-1.64-.46-3.28-.75-5.31.34.46.59.66.61.87.29,2.98,1.22,5.9.99,8.93,0,.12-.11.23-.37.76Z"/>
        <path class="cls-2" d="M190.18,109.42c.38.29.76.57,1.22.92-.72.8-1.43,1.58-2.19,2.42-.41-.26-.98.75-1.46-.1.81-1.08,1.62-2.16,2.43-3.23Z"/>
        <path class="cls-2" d="M167.19,120.06c-.29-3.04.85-5.39,1.27-7.96.5,1.61-.11,5.72-1.27,7.96Z"/>
        <path class="cls-2" d="M190.18,109.42c-.81,1.08-1.62,2.16-2.43,3.23-.49-.15-.98-.3-1.6-.49,1.47-1.36,2.8-2.59,4.12-3.82.08.04.15.07.23.11-.11.32-.21.65-.32.97Z"/>
        <path class="cls-2" d="M185.87,124.09c-.14-2.35-.54-4.74.39-7.16.59,2.31.46,5.61-.39,7.16Z"/>
        <path class="cls-2" d="M165.46,51.72c-1.22.11-2.45.21-3.67.32,2.07-1.37,4.35-1.69,6.8-1.44-.47.23-.94.45-1.41.68-.57.15-1.14.3-1.72.45Z"/>
        <path class="cls-2" d="M165.15,133.66c-.29-.95-.59-1.9-.85-2.87-.04-.16.1-.37.23-.81,1.14,2.51,2.47,4.64,4.31,6.41-.05.05-.1.11-.15.16-.63-.44-1.28-.85-1.87-1.33-.6-.49-1.13-1.06-1.7-1.59l.02.02Z"/>
        <path class="cls-2" d="M71.49,46.4c-1.39,1.97-2.78,3.93-4.4,6.22.32-2.19,2.16-4.87,4.4-6.22Z"/>
        <path class="cls-2" d="M155.24,90.27c-1.27-2.98-1.03-6.09-.72-9.2.24,3.07.48,6.13.72,9.2Z"/>
        <path class="cls-2" d="M132.08,56.93c-1.24,2.24-2.82,4.18-5.19,5.43,1.62-1.92,3.25-3.84,4.87-5.75.11.11.22.21.33.32Z"/>
        <path class="cls-2" d="M154.29,70.99c-.35,1.87-.7,3.74-1.05,5.61-.16-.03-.32-.06-.47-.09-.47-2.02.28-3.83,1.01-5.64l.52.12Z"/>
        <path class="cls-2" d="M134.43,56.27c-.12,2.16-1.3,3.38-2.62,4.68-.02-1.76.82-3.23,2.62-4.68Z"/>
        <path class="cls-2" d="M161.83,55.58c2.86-.55,4.24.1,6.7,3.32-.33-.19-.7-.32-.98-.56-1.63-1.46-3.43-2.56-5.72-2.75Z"/>
        <path class="cls-2" d="M125.33,142.78c-2.29-1.88-3.84-3.83-4.6-5.89,1.04.49,1.57,1.5,2.22,2.39.84,1.13,1.77,2.17,2.71,3.23-.11.09-.22.18-.32.27Z"/>
        <path class="cls-2" d="M198.78,53.08c-.6-2.59.39-5.04.37-7.55.61,2.34.4,5.87-.37,7.55Z"/>
        <path class="cls-2" d="M202.02,84.63c-.75,2.01-1.5,4.03-2.36,6.32-.2-.75-.31-1.19-.45-1.7.82-1.6,1.66-3.23,2.5-4.86.1.08.2.16.3.24Z"/>
        <path class="cls-2" d="M141.72,65.02c.33-.71.65-1.42,1.04-2.25.56,1.21-.21,2.23-.23,3.29-.03,1.09-.37,2.18-.62,3.52-.97-.91-.29-1.67-.27-2.37.02-.74.07-1.48.1-2.21,0,0-.02.02-.02.02Z"/>
        <path class="cls-2" d="M151.01,59.77c.15-.3.3-.61.46-.91.68-1.02,1.36-2.03,2.03-3.05.12.06.24.12.35.17-.73,1.65-1.39,3.31-2.03,4.99h0c-.19.3-.39.6-.65,1.02-.37-.78-.13-1.51-.17-2.22Z"/>
        <path class="cls-2" d="M161.32,85.78c.52-1.57,1.04-3.14,1.56-4.7q.71.65.13,3.18c-.42.51-.92,1.12-1.41,1.73-.09-.07-.18-.14-.27-.21Z"/>
        <path class="cls-2" d="M180.48,125.48c.52.55,1.04,1.09,1.55,1.64,1.08,1.27,2.17,2.54,3.25,3.81-2.14-1.35-4.16-2.79-4.81-5.45Z"/>
        <path class="cls-2" d="M164.14,91.56c.25,2.34,1.04,4.65.46,7.37-.96-2.62-.77-4.99-.46-7.37Z"/>
        <path class="cls-2" d="M166.75,49.33c-2,.52-3.88,1.02-5.85,1.54.91-1.1,1.78-1.5,4.18-1.94.56-.1,1.17-.27,1.67.41Z"/>
        <path class="cls-2" d="M171.28,112.76v-6.25c.53,2.1,1.36,4.2,0,6.25Z"/>
        <path class="cls-2" d="M142.4,74.02c-.14-2.28.45-4.46,1.68-6.33-.24,2.18-.93,4.25-1.68,6.33Z"/>
        <path class="cls-2" d="M111.22,60.15c.2,2.55-.56,4.92-1.97,7.1-.26-1.33.75-2.29,1.01-3.48.26-1.22.64-2.42.97-3.62Z"/>
        <path class="cls-2" d="M110.42,96.23c-.24-2.01-.47-3.98-.69-5.84,1.49,1.67,1.78,3.84.69,5.84Z"/>
        <path class="cls-2" d="M154.99,93.23c1.13,3.12,1.12,4.2.05,6.26-.03-2.09-.05-4.17-.05-6.26Z"/>
        <path class="cls-2" d="M114.66,65.23l-.91,6.8c-.38-2.35-.69-4.69.91-6.8Z"/>
        <path class="cls-2" d="M184.95,107c-.25.05-.5.09-.44.08-.78,1.07-1.4,1.91-2.02,2.76v-2.25c.55-.46,1.34-1.13,2.32-1.95.07.62.11.99.15,1.37Z"/>
        <path class="cls-2" d="M175.74,95.04c-1.09,1.47-2.2,2.92-4.34,3.83,1.18-1.98,2.79-2.87,4.34-3.83Z"/>
        <path class="cls-2" d="M125.55,165.57c-1.2-1.78-2.4-3.57-3.8-5.64,2.16,1.39,3.48,3.42,3.85,5.6l-.05.04Z"/>
        <path class="cls-2" d="M197.77,111.36c-.99,1.5-1.98,3.01-3.02,4.59-.14-.25-.33-.6-.54-.97,1.1-1.3,2.15-2.55,3.2-3.8.12.06.24.12.36.18Z"/>
        <path class="cls-2" d="M189.66,85.85c-.86,1.48-1.85,2.82-3.63,3.24.95-1.36,1.96-2.65,3.63-3.24Z"/>
        <path class="cls-2" d="M217.07,105.44c.34,1.89-.08,3.45-1.86,4.45.62-1.48,1.24-2.97,1.86-4.45Z"/>
        <path class="cls-2" d="M165.46,51.72c.57-.15,1.14-.3,1.72-.45h2.94c0,.08,0,.15,0,.23-1.88.4-3.75.8-5.63,1.19-.03-.09-.06-.17-.08-.26.35-.24.71-.47,1.06-.71Z"/>
        <path class="cls-2" d="M178.07,98.51c-.14.14-.28.28-.43.42-1.25.9-2.27,2.14-3.98,2.41.88-.78,1.77-1.57,2.65-2.35.59-.43,1.19-.86,1.78-1.29,0,.27-.02.54-.03.81Z"/>
        <path class="cls-2" d="M193.9,32.97c.22,2.04-1.28,3.6-1.54,5.72-.24-.35-.43-.63-.62-.9.74-1.66,1.46-3.24,2.17-4.82Z"/>
        <path class="cls-2" d="M174.93,77.17c.8-1.97,1.6-3.94,2.41-5.92-.15,2.26-.79,4.33-2.41,5.92Z"/>
        <path class="cls-2" d="M179.25,73c-.94,1.75-1.88,3.49-2.83,5.24l-.37-.2c.93-1.75,1.22-3.87,3.19-5.04Z"/>
        <path class="cls-2" d="M200.63,54.96c.13-.83.26-1.66.35-2.26-.14-1.31-.25-2.4-.37-3.5.67,1.93,1.43,3.88.53,5.86-.17-.03-.34-.07-.51-.1Z"/>
        <path class="cls-2" d="M165.14,90.11c1.09-1.6,2.19-3.2,3.38-4.94-.03,1.74-1.4,3.8-3.38,4.94Z"/>
        <path class="cls-2" d="M176.29,90.69c-.86,1.63-1.7,3.26-3.52,4.2l3.1-4.44c.14.08.28.16.42.24Z"/>
        <path class="cls-2" d="M227.85,120.69c-1.81.2-3.62.39-5.77.63,1.45-1.19,3.04-1.35,5.77-.63Z"/>
        <path class="cls-2" d="M195.88,90.98c.2-2.11,1.36-3.25,2.43-4.44-.5,1.51-.95,3.06-2.43,4.44Z"/>
        <path class="cls-2" d="M88.03,40.78c-1.28.4-2.56.79-3.84,1.19-.05-.12-.11-.24-.16-.37,1.18-.7,2.37-1.39,3.55-2.09.08.08.16.15.24.23-.23.29-.46.58-.75.95.32.03.64.05.95.08h0Z"/>
        <path class="cls-2" d="M202.34,99.87c.96-1.33,1.93-2.66,2.89-3.98-.37,1.72-.91,3.32-2.49,4.25-.13-.09-.27-.18-.4-.26Z"/>
        <path class="cls-2" d="M153.62,49.43c1.23-2.47,1.8-3.03,3.36-3.32-1,1.38-2.13,2.4-3.36,3.32Z"/>
        <path class="cls-2" d="M88.02,40.78c.15-.13.29-.36.44-.36,2.05-.02,4.1-.02,6.2.25-.34.17-.69.35-1.03.52,0-.08-.01-.16-.02-.24-1.86-.05-3.73-.1-5.59-.16h0Z"/>
        <path class="cls-2" d="M106.39,61.7c-1.02-1.75-.77-3.64-1.31-5.34.96,1.11,1.58,3.67,1.31,5.34Z"/>
        <path class="cls-2" d="M166.95,82.59c-.78,2.28-1.19,2.8-2.9,3.88.72-1.7,1.82-2.79,2.9-3.88Z"/>
        <path class="cls-2" d="M174.89,55.69c-2.35-.16-4.7-.32-7.05-.47,2.36-.54,4.7-.38,7.05.47Z"/>
        <path class="cls-2" d="M109.61,40.75c-.31-2.01.02-2.6,1.93-3.57.11.2.23.41.32.56-.5.49-.97.87-1.33,1.34-.35.46-.57,1.01-.92,1.67Z"/>
        <path class="cls-2" d="M172.41,53.13c-1.78.33-3.57.66-5.35.99,1.63-1.46,3.51-1.33,5.35-.99Z"/>
        <path class="cls-2" d="M159.43,108.3c.6-1.93,1.21-3.86,1.81-5.78.29,1.05.3,1.05-.36,3.02-.33.97-.69,1.94-1.04,2.9-.14-.05-.27-.09-.41-.14Z"/>
        <path class="cls-2" d="M176.94,124.53v-7.68c.43,1.63.48,5.9,0,7.68Z"/>
        <path class="cls-2" d="M201.6,72.35c.41-1.78.83-3.56,1.31-5.63.58,2.32-.13,4.08-1.31,5.63Z"/>
      </g>
    </g>
  </g>
</svg>